<?xml version="1.0" encoding="utf-8"?>
<!-- Generator: Adobe Illustrator 21.1.0, SVG Export Plug-In . SVG Version: 6.00 Build 0)  -->
<svg version="1.1" xmlns="http://www.w3.org/2000/svg" xmlns:xlink="http://www.w3.org/1999/xlink" x="0px" y="0px"
	 viewBox="0 0 460.6 321.5" style="enable-background:new 0 0 460.6 321.5;" xml:space="preserve">
<style type="text/css">
	.st0{fill:#A64828;}
	.st1{fill:#231F20;}
	.st2{fill:#FFEDCA;}
</style>
<g id="Base">
	<rect class="st0" width="467.6" height="326.5"/>
</g>
<g id="DarkGray">
	<path class="st1" d="M210.3,254.1v-9.3c0-0.1,0.1-0.3,0.3-0.3h1.7c0.1,0,0.3,0.1,0.3,0.3v9.3c0,0.1-0.1,0.3-0.3,0.3h-1.7
		C210.4,254.4,210.3,254.2,210.3,254.1z M219.2,254.5c1.2,0,2.5-0.4,3.4-1.4c0.1-0.1,0.1-0.3,0-0.4l-1.1-1.2c-0.1-0.1-0.3-0.1-0.4,0
		c-0.5,0.4-1.2,0.7-1.9,0.7c-1.6,0-2.8-1.3-2.8-2.8c0-1.6,1.2-2.9,2.7-2.9c0.7,0,1.4,0.3,1.9,0.7c0.1,0.1,0.3,0.1,0.4,0l1.1-1.1
		c0.1-0.1,0.1-0.3,0-0.4c-1-0.9-2-1.3-3.4-1.3c-2.8,0-5.1,2.3-5.1,5.1S216.4,254.5,219.2,254.5z M223.6,246.6h2v7.5
		c0,0.1,0.1,0.3,0.3,0.3h1.7c0.1,0,0.3-0.1,0.3-0.3v-7.5h2c0.2,0,0.3-0.1,0.3-0.3v-1.5c0-0.1-0.1-0.3-0.3-0.3h-6.2
		c-0.2,0-0.3,0.1-0.3,0.3v1.5C223.3,246.5,223.4,246.6,223.6,246.6z M231.6,254.5c0.3,0,0.6-0.1,0.6-0.1c0,1-0.9,1.6-1,1.7
		c-0.1,0.1-0.1,0.2,0,0.3l0.2,0.3c0.1,0.1,0.2,0.1,0.3,0c0.3-0.3,1.3-1.1,1.3-2.6c0-1.2-0.8-1.7-1.3-1.7c-0.7,0-1.1,0.5-1.1,1
		C230.6,254,231,254.5,231.6,254.5z M237.9,254.4h1.6c0.2,0,0.3-0.2,0.3-0.3v-4.2l3.2,4.4c0,0,0.2,0.1,0.3,0.1h1.9
		c0.3,0,0.4-0.3,0.3-0.5l-3.6-4.7l3.3-4.1c0.2-0.2,0-0.5-0.3-0.5h-1.8c-0.1,0-0.2,0.1-0.3,0.1l-3.1,3.9v-3.7c0-0.2-0.2-0.3-0.3-0.3
		h-1.6c-0.2,0-0.3,0.2-0.3,0.3v9.1C237.6,254.2,237.7,254.4,237.9,254.4z M249.1,250.3c1,0.4,1.4,0.8,1.4,1.4c0,0.5-0.4,0.8-1,0.8
		c-0.9,0-1.9-0.7-2-0.8c-0.1-0.1-0.4-0.1-0.5,0.1l-0.7,1.2c-0.1,0.2-0.1,0.3,0.1,0.4c0.3,0.3,1.3,1.1,3.2,1.1c2.1,0,3.3-1.5,3.3-2.9
		c0-1.9-1.7-2.8-2.8-3.2c-1.1-0.4-1.5-0.8-1.5-1.4c0-0.4,0.4-0.7,0.9-0.7c0.9,0,1.9,0.8,2,0.8c0.1,0.1,0.4,0,0.5-0.2l0.7-1.1
		c0.1-0.1,0.1-0.4-0.1-0.4c-0.4-0.3-1.5-1.1-3-1.1c-2.2,0-3.2,1.4-3.2,2.8C246.4,248.9,247.9,249.8,249.1,250.3z M447.1,257.2
		l-40.4,11.4l7.9,41.9c0.1,0.8-0.7,1.4-1.4,0.9l-3.5-2.1c-0.3-0.2-28-16.7-70.5-30.4l-3.4-1.1c-1.1-0.3-1.6-1.6-1.1-2.6l9.2-18
		c0.3-0.5,0-1.2-0.5-1.4c-10.6-3.9-25.1-8.8-42.3-12.8c-0.5-0.1-1,0.2-1.2,0.7c-4.9,14.7-13.6,26.9-25.6,35.6
		c-12.3,9-27.9,13.9-43.7,13.9c-15.8,0-31.3-4.9-43.7-13.9c-12-8.7-20.8-21-25.6-35.6c-0.2-0.5-0.7-0.8-1.2-0.7
		c-17.2,4.1-31.7,8.9-42.3,12.8c-0.6,0.2-0.8,0.9-0.5,1.4l9.2,18c0.5,1,0,2.2-1.1,2.6l-3.4,1.1c-42.5,13.8-70.2,30.3-70.5,30.4
		l-1.7,1c-1.3,0.8-3-0.4-2.7-1.9l7.5-39.9l-38.4-10.8c-1.5-0.4-1.8-2.5-0.5-3.3l1.8-1.1c2.4-1.5,24-14.3,58.5-27.7
		c0.5-0.2,0.7-0.8,0.5-1.3l-5.2-10.5c-0.4-0.9-0.1-2,0.8-2.4l0.8-0.4c0.8-0.4,6.5-3.2,16.1-7.1L50.3,69c-1.4-5,1.5-10.3,6.5-11.7
		L103.2,44c-0.1-1.8,0.3-3.6,1.2-5.2c1.2-2.2,3.3-3.8,5.7-4.5l14.6-3.7c0.4-0.1,0.8-0.1,1.2,0c2.6,0.4,12.7,2.2,17.7,3.3
		c3.8-3.3,11.5-9.7,14.5-12.2c0.8-0.6,1.8-0.8,2.7-0.6c3.6,1,12.8,3.7,17.3,5.2c4-2.9,12.2-8.4,15.4-10.5c0.8-0.6,1.9-0.7,2.8-0.3
		c3.5,1.4,12.4,5.1,16.7,7.1c4.2-2.5,12.7-7,16.1-8.8c0.9-0.5,1.9-0.5,2.8,0c3.4,1.8,11.9,6.4,16.1,8.8c4.4-2,13.2-5.6,16.7-7.1
		c0.9-0.4,2-0.3,2.8,0.3c3.2,2.1,11.4,7.6,15.4,10.5c4.5-1.5,13.7-4.2,17.3-5.2c0.9-0.3,2-0.1,2.7,0.6c3,2.5,10.8,8.9,14.5,12.2
		c5.1-1.1,15.1-2.9,17.7-3.3c0.4-0.1,0.8-0.1,1.2,0l14.5,3.6c2.5,0.7,4.6,2.3,5.8,4.5c0.9,1.6,1.3,3.4,1.2,5.2l46.3,13.2
		c2.4,0.7,4.5,2.3,5.7,4.5c1.2,2.2,1.5,4.8,0.8,7.2l-38.6,135c9.7,3.9,15.4,6.7,16.2,7.1l0.8,0.4c0.9,0.4,1.3,1.5,0.8,2.4l-5.2,10.5
		c-0.2,0.5,0,1.1,0.5,1.3c34.5,13.4,56.1,26.2,58.5,27.7l3.6,2.2C448,256,447.9,257,447.1,257.2z M325.3,158.7l-8,27.8
		c2.2,0.5,4.4,1.1,6.6,1.7c0-0.5,0-1.1,0.2-1.6c0.4-1.3,1.3-2.4,2.5-3.1c1.2-0.7,2.6-0.8,3.9-0.5c2.7,0.8,4.3,3.6,3.5,6.4
		c-0.1,0.5-0.4,0.9-0.6,1.4c6.7,1.9,12.8,3.8,18.4,5.7c-0.1-0.6,0-1.3,0.2-2c0.8-2.7,3.6-4.3,6.4-3.5c1.3,0.4,2.4,1.3,3.1,2.5
		s0.8,2.6,0.5,3.9c-0.2,0.9-0.7,1.6-1.3,2.2c2,0.7,4,1.5,5.8,2.2L405,67.3c0.3-0.9,0.1-1.8-0.3-2.7c-0.5-0.8-1.2-1.4-2.1-1.7
		l-46.1-13.2L325.3,158.7z M358.9,194.9c-0.3-0.5-0.7-0.9-1.3-1c-0.2-0.1-0.4-0.1-0.6-0.1c-0.9,0-1.8,0.6-2.1,1.6
		c-0.3,1.1,0.3,2.3,1.5,2.7c1.1,0.3,2.3-0.3,2.7-1.5C359.3,196,359.2,195.4,358.9,194.9z M329.7,185.9L329.7,185.9
		c-0.2-0.1-0.4-0.1-0.6-0.1c-0.4,0-0.7,0.1-1,0.3c-0.5,0.3-0.9,0.7-1,1.3c-0.2,0.6-0.1,1.2,0.2,1.6c1,0.3,2,0.5,3,0.8
		c0.5-0.3,0.8-0.7,1-1.3C331.6,187.4,330.9,186.2,329.7,185.9z M301.6,183c3.4,0.7,6.7,1.4,9.9,2.1l40.3-140.7
		c0.3-0.9,0.1-1.8-0.3-2.7c-0.5-0.8-1.2-1.4-2.1-1.7l-11.5-2.9L301.6,183z M288.7,180.7c2.4,0.4,4.7,0.8,7,1.2l36-144.6
		c-4.7,0.8-9.5,1.7-14.1,2.8L288.7,180.7z M277.3,178.9c2.8,0.4,5.7,0.8,8.4,1.2l28.9-140.8l0,0c-4.2-3.7-8.5-7.4-12.8-10.9
		L277.3,178.9z M266,177.6c2.8,0.3,5.6,0.6,8.4,1l24.6-150.9c-5.1,1.5-10.3,3-15.3,4.7L266,177.6z M254.6,176.6
		c2.8,0.2,5.6,0.4,8.3,0.7l17.6-145.2c-4.4-3.2-9-6.4-13.6-9.5L254.6,176.6z M243.3,176c2.8,0.1,5.6,0.2,8.3,0.4l12.4-154.2
		c-5,2-10,4.1-14.8,6.4L243.3,176z M232,175.7c2.8,0,5.5,0.1,8.3,0.1l5.9-147.4c-4.7-2.8-9.4-5.4-14.2-8V175.7z M214.8,28.5
		l5.9,147.4c2.7-0.1,5.5-0.1,8.3-0.1V20.5C224.2,23,219.5,25.7,214.8,28.5z M197,22.2l12.4,154.2c2.7-0.2,5.5-0.3,8.3-0.4
		l-5.9-147.4C206.9,26.3,202,24.2,197,22.2z M180.5,32.1l17.7,145.2c2.8-0.3,5.5-0.5,8.3-0.7L194,22.6
		C189.4,25.6,184.9,28.8,180.5,32.1z M162.2,27.7l24.6,150.9c2.8-0.4,5.5-0.7,8.4-1L177.5,32.4C172.5,30.7,167.3,29.1,162.2,27.7z
		 M146.5,39.4l28.9,140.8c2.8-0.4,5.6-0.9,8.4-1.2L159.3,28.5C154.9,32,150.6,35.7,146.5,39.4L146.5,39.4z M129.4,37.2l36,144.7
		c2.3-0.4,4.7-0.8,7-1.2L143.5,40C138.9,39,134.1,38.1,129.4,37.2z M109.3,44.4l40.3,140.8c3.2-0.7,6.5-1.4,9.9-2.1L123.2,37.2
		l-11.6,2.9c-0.8,0.2-1.5,0.8-2,1.6C109.1,42.5,109,43.5,109.3,44.4z M94.6,201.8c2.1-0.8,4.4-1.7,6.8-2.5l-2-7
		c-0.1-0.4-0.1-0.8,0.1-1.1c0.2-0.3,0.5-0.6,0.9-0.7l6.9-2c0.8-0.2,1.6,0.2,1.9,1l1.8,6.4c1-0.3,2-0.7,3.1-1l-3.1-10.8
		c-0.1-0.4-0.1-0.8,0.1-1.1c0.2-0.3,0.5-0.6,0.9-0.7l6.9-2c0.8-0.2,1.6,0.2,1.9,1l3,10.5c1-0.3,2-0.6,3.1-0.9l-1.3-4.5
		c-0.1-0.4-0.1-0.8,0.1-1.1c0.2-0.3,0.5-0.6,0.9-0.7l6.9-2c0.8-0.2,1.6,0.2,1.9,1l1.3,4.6c2.3-0.6,4.6-1.2,7-1.8L104.6,49.8L58.5,63
		c-1.9,0.5-2.9,2.5-2.4,4.3L94.6,201.8z M132.9,185.9l-4.1,1.2l0.9,3.1c1.3-0.4,2.7-0.7,4.1-1.1L132.9,185.9z M118.3,183.6l-4.1,1.2
		l2.6,9.2c1.3-0.4,2.7-0.8,4-1.3L118.3,183.6z M106.7,191.8l-4.1,1.2l1.5,5.4c1.3-0.5,2.6-0.9,4-1.4L106.7,191.8z M37.5,258.1
		c9.5-5,25.2-12.7,45.5-20.6l-3.6-7.3c-24.2,9.3-42.1,18.4-51.6,23.5c-0.7,0.4-0.6,1.5,0.2,1.7L37.5,258.1z M60.8,264.7l-4.5,24
		c10.1-5.1,26.3-12.7,46.7-20.1l-4.1-2.4c-1.5-0.9-2.8-2.2-3.6-3.8l-11-22.2c-18.4,7.1-33.1,14.1-42.7,19.1L60.8,264.7z
		 M114.9,275.6l-8.5-4.9c-22.9,8.1-40.7,16.6-50.8,21.9l-1.4,7.5c-0.1,0.8,0.6,1.3,1.3,1C65.7,295.5,86.8,285.1,114.9,275.6z
		 M291.7,244.5c-1-0.2-2.1-0.4-3.1-0.6c-0.5-0.1-0.9,0.2-1.1,0.6c-9.7,22.6-30.9,37.6-56.5,37.6c-0.2,0-0.4,0-0.6,0
		c-25.5-0.2-46.5-14.3-56.2-36.7c-0.2-0.4-0.6-0.7-1.1-0.6c-1.2,0.2-2.4,0.5-3.5,0.7c-0.6,0.1-1,0.8-0.7,1.4
		c12.2,29.6,40,40.4,61.8,40.4c21.8,0,49.6-11.8,61.8-41.4C292.6,245.3,292.3,244.6,291.7,244.5z M182.3,243.8
		c-0.2-0.4-0.6-0.6-1.1-0.6c-1,0.2-2.1,0.4-3.1,0.6c-0.6,0.1-1,0.8-0.7,1.4c10.9,24.5,34.4,33.7,53,33.9c0.2,0,0.3,0,0.5,0
		c18.7,0,42.4-10,53.4-34.8c0.3-0.6-0.1-1.3-0.7-1.4c-1.2-0.2-2.4-0.4-3.6-0.7c-0.4-0.1-0.9,0.2-1.1,0.6
		c-8.7,18.6-26.7,31.1-48.3,31.1C209,273.8,191,262.4,182.3,243.8z M188.8,243.4c9.4,17.8,27.5,24.5,41.9,24.5
		c14.4,0,32.5-7.6,41.9-25.5c0.3-0.6-0.1-1.4-0.8-1.5c-14-2-27.8-2.1-41.1-2.1c-13.3,0-27.1,1.1-41.1,3.1
		C188.8,242,188.4,242.7,188.8,243.4z M362.1,257.6l21.4-42.8c-13.2-6.2-76.2-33.6-152.8-33.6c-76.6,0-139.6,27.4-152.8,33.6
		l21.3,42.8c12.1-5.5,67-28.6,131.5-28.6C295.2,229,350,252.1,362.1,257.6z M405.6,292.5c-10.1-5.3-27.9-13.8-50.8-21.9l-8.4,4.9
		c28,9.5,49.1,19.9,59.4,25.4c0.7,0.4,1.5-0.2,1.3-1L405.6,292.5z M419.5,259.3c-10-5.2-24.5-12-42.7-19.1l-11.1,22.2
		c-0.8,1.6-2,2.9-3.5,3.8l-4.1,2.4c20.5,7.4,36.7,15,46.8,20.1l-4.5-24L419.5,259.3z M433.4,253.8c-9.5-5.2-27.4-14.3-51.6-23.5
		l-3.6,7.3c19.9,7.7,35.5,15.3,45.6,20.6l9.5-2.7C434,255.2,434.1,254.2,433.4,253.8z M353.3,175.2c-0.4,1.3-1.3,2.4-2.5,3.1
		c-0.8,0.4-1.6,0.7-2.5,0.7c-0.5,0-1-0.1-1.4-0.2c-2.7-0.8-4.3-3.6-3.5-6.4c0.8-2.7,3.6-4.3,6.4-3.5
		C352.5,169.6,354,172.5,353.3,175.2z M348.9,171.7L348.9,171.7c-0.2-0.1-0.4-0.1-0.6-0.1c-0.4,0-0.7,0.1-1,0.3
		c-0.5,0.3-0.9,0.7-1,1.3c-0.3,1.1,0.3,2.3,1.5,2.7c0.6,0.2,1.1,0.1,1.6-0.2c0.5-0.3,0.9-0.7,1-1.3C350.7,173.2,350,172,348.9,171.7
		z M78.4,70.2c-0.2-0.8,0.2-1.6,1-1.9l6.9-2c0.4-0.1,0.8-0.1,1.1,0.1c0.3,0.2,0.6,0.5,0.7,0.9L92,80.7c0.2,0.8-0.2,1.6-1,1.9l-6.9,2
		c-0.1,0-0.3,0.1-0.4,0.1c-0.7,0-1.3-0.4-1.4-1.1L78.4,70.2z M81.7,70.8l3,10.4l4.1-1.2l-3-10.4L81.7,70.8z M103.8,74.8
		c0.3,0.2,0.6,0.5,0.7,0.9l2.1,7.3c0.1,0.4,0.1,0.8-0.1,1.1c-0.2,0.3-0.5,0.6-0.9,0.7l-6.9,2c-0.1,0-0.3,0.1-0.4,0.1
		c-0.7,0-1.3-0.4-1.4-1.1l-2.1-7.3c-0.2-0.8,0.2-1.6,1-1.9l6.9-2C103.1,74.5,103.5,74.6,103.8,74.8z M103.3,82.4l-1.3-4.4L98,79.1
		l1.3,4.4L103.3,82.4z M349.2,184c0.7,1.2,0.8,2.6,0.5,3.9c-0.4,1.3-1.3,2.4-2.5,3.1c-0.8,0.4-1.6,0.7-2.5,0.7c-0.5,0-1-0.1-1.4-0.2
		c-2.7-0.8-4.3-3.6-3.5-6.4c0.4-1.3,1.3-2.4,2.5-3.1s2.6-0.8,3.9-0.5C347.4,181.9,348.5,182.8,349.2,184z M346.6,185.4
		c-0.3-0.5-0.7-0.9-1.3-1c-0.2-0.1-0.4-0.1-0.6-0.1c-0.4,0-0.7,0.1-1,0.3c-0.5,0.3-0.9,0.7-1,1.3c-0.3,1.1,0.3,2.3,1.5,2.7
		c0.6,0.2,1.1,0.1,1.6-0.2c0.5-0.3,0.9-0.7,1-1.3C346.9,186.5,346.8,185.9,346.6,185.4z M69.4,83.9c-0.7,0-1.3-0.4-1.4-1.1l-2.5-8.9
		c-0.1-0.4-0.1-0.8,0.1-1.1c0.2-0.3,0.5-0.6,0.9-0.7l6.9-2c0.8-0.2,1.6,0.2,1.9,1l2.5,8.9c0.1,0.4,0.1,0.8-0.1,1.1
		c-0.2,0.3-0.5,0.6-0.9,0.7l-6.9,2C69.7,83.8,69.6,83.9,69.4,83.9z M68.7,74.5l1.7,6l4.1-1.2l-1.7-6L68.7,74.5z M72.9,95.8
		c-0.7,0-1.3-0.4-1.4-1.1l-2.1-7.3c-0.1-0.4-0.1-0.8,0.1-1.1c0.2-0.3,0.5-0.6,0.9-0.7l6.9-2c0.8-0.2,1.6,0.2,1.9,1l2.1,7.3
		c0.1,0.4,0.1,0.8-0.1,1.1c-0.2,0.3-0.5,0.6-0.9,0.7l-6.9,2C73.1,95.8,73,95.8,72.9,95.8z M72.6,88.1l1.3,4.4l4.1-1.2l-1.3-4.4
		L72.6,88.1z M372.4,155.4c0.7,1.2,0.8,2.6,0.5,3.9c-0.6,2.3-2.7,3.7-5,3.7c-0.5,0-0.9-0.1-1.4-0.2c-1.3-0.4-2.4-1.3-3.1-2.5
		s-0.8-2.6-0.5-3.9c0.8-2.7,3.6-4.3,6.4-3.5C370.7,153.3,371.8,154.2,372.4,155.4z M369.8,156.8c-0.3-0.5-0.7-0.9-1.3-1
		c-0.2-0.1-0.4-0.1-0.6-0.1c-0.9,0-1.8,0.6-2.1,1.6c-0.2,0.6-0.1,1.1,0.2,1.6c0.3,0.5,0.7,0.9,1.3,1c1.2,0.3,2.3-0.3,2.7-1.5
		C370.2,157.9,370.1,157.3,369.8,156.8z M369.3,172c-0.6,2.3-2.7,3.7-5,3.7c-0.5,0-0.9-0.1-1.4-0.2c-2.7-0.8-4.3-3.6-3.5-6.4
		c0.8-2.7,3.6-4.3,6.4-3.5C368.5,166.4,370,169.3,369.3,172z M364.9,168.5c-0.2-0.1-0.4-0.1-0.6-0.1c-0.9,0-1.8,0.6-2.1,1.6
		c-0.3,1.1,0.3,2.3,1.5,2.7c1.1,0.3,2.3-0.3,2.7-1.5C366.7,170,366,168.8,364.9,168.5z M91.3,66.5c-0.1-0.4-0.1-0.8,0.1-1.1
		c0.2-0.3,0.5-0.6,0.9-0.7l6.9-2c0.8-0.2,1.6,0.2,1.9,1l2.3,8c0.1,0.4,0.1,0.8-0.1,1.1c-0.2,0.3-0.5,0.6-0.9,0.7l-6.9,2
		c-0.1,0-0.3,0.1-0.4,0.1c-0.7,0-1.3-0.4-1.4-1.1L91.3,66.5z M94.6,67.1l1.5,5.1l4.1-1.2L98.6,66L94.6,67.1z M365.6,184.7
		c-0.6,2.3-2.7,3.7-5,3.7c-0.5,0-0.9-0.1-1.4-0.2c-2.7-0.8-4.3-3.6-3.5-6.4c0.8-2.7,3.6-4.3,6.4-3.5
		C364.8,179.1,366.4,182,365.6,184.7z M361.3,181.2c-0.2-0.1-0.4-0.1-0.6-0.1c-0.9,0-1.8,0.6-2.1,1.6c-0.3,1.1,0.3,2.3,1.5,2.7
		c1.1,0.3,2.3-0.3,2.7-1.5C363.1,182.7,362.4,181.5,361.3,181.2z M94.5,175.6l-2.1-7.3c-0.1-0.4-0.1-0.8,0.1-1.1
		c0.2-0.3,0.5-0.6,0.9-0.7l6.9-2c0.8-0.2,1.6,0.2,1.9,1l2.1,7.3c0.1,0.4,0.1,0.8-0.1,1.1c-0.2,0.3-0.5,0.6-0.9,0.7l-6.9,2
		c-0.1,0-0.3,0.1-0.4,0.1C95.3,176.7,94.7,176.3,94.5,175.6z M95.8,168.9l1.3,4.4l4.1-1.2l-1.3-4.4L95.8,168.9z M107.8,184.8
		c0.1,0.4,0.1,0.8-0.1,1.1c-0.2,0.3-0.5,0.6-0.9,0.7l-6.9,2c-0.1,0-0.3,0.1-0.4,0.1c-0.7,0-1.3-0.4-1.4-1.1l-2.1-7.3
		c-0.1-0.4-0.1-0.8,0.1-1.1c0.2-0.3,0.5-0.6,0.9-0.7l6.9-2c0.8-0.2,1.6,0.2,1.9,1L107.8,184.8z M104.5,184.2l-1.3-4.4l-4.1,1.2
		l1.3,4.4L104.5,184.2z M364.2,118L364.2,118c2.7,0.8,4.3,3.6,3.5,6.4c-0.6,2.3-2.7,3.7-5,3.7c-0.5,0-0.9-0.1-1.4-0.2
		c-1.3-0.4-2.4-1.3-3.1-2.5s-0.8-2.6-0.5-3.9C358.6,118.8,361.5,117.3,364.2,118z M360.9,124.1c0.3,0.5,0.7,0.9,1.3,1
		c1.1,0.3,2.3-0.3,2.7-1.5c0.3-1.1-0.3-2.3-1.5-2.7c-0.2-0.1-0.4-0.1-0.6-0.1c-0.9,0-1.8,0.6-2.1,1.6
		C360.6,123,360.6,123.5,360.9,124.1z M384.7,80.4c0.4-1.3,1.3-2.4,2.5-3.1c1.2-0.7,2.6-0.8,3.9-0.5c1.3,0.4,2.4,1.3,3.1,2.5
		s0.8,2.6,0.5,3.9c-0.6,2.3-2.7,3.7-5,3.7c-0.5,0-0.9-0.1-1.4-0.2C385.5,86,383.9,83.2,384.7,80.4z M389.1,83.9
		c1.1,0.3,2.3-0.3,2.7-1.5c0.2-0.6,0.1-1.1-0.2-1.6c-0.3-0.5-0.7-0.9-1.3-1l0,0c-0.2-0.1-0.4-0.1-0.6-0.1c-0.4,0-0.7,0.1-1,0.3
		c-0.5,0.3-0.9,0.7-1,1.3C387.3,82.4,387.9,83.6,389.1,83.9z M367.9,105.3L367.9,105.3c2.7,0.8,4.3,3.6,3.5,6.4
		c-0.6,2.3-2.7,3.7-5,3.7c-0.5,0-0.9-0.1-1.4-0.2c-2.7-0.8-4.3-3.6-3.5-6.4S365.1,104.6,367.9,105.3z M365.9,112.4
		c1.1,0.3,2.3-0.3,2.7-1.5c0.3-1.1-0.3-2.3-1.5-2.7c-0.2-0.1-0.4-0.1-0.6-0.1c-0.9,0-1.8,0.6-2.1,1.6
		C364,110.9,364.7,112.1,365.9,112.4z M351.9,166.3c-0.5,0-0.9-0.1-1.4-0.2c-2.7-0.8-4.3-3.6-3.5-6.4c0.4-1.3,1.3-2.4,2.5-3.1
		c1.2-0.7,2.6-0.8,3.9-0.4c1.3,0.4,2.4,1.3,3.1,2.5c0.7,1.2,0.8,2.6,0.5,3.9C356.2,164.8,354.2,166.3,351.9,166.3z M353.8,160
		c-0.3-0.5-0.7-0.9-1.3-1l0,0c-0.2-0.1-0.4-0.1-0.6-0.1c-0.4,0-0.7,0.1-1,0.3c-0.5,0.3-0.9,0.7-1,1.3c-0.3,1.1,0.3,2.3,1.5,2.7
		c1.1,0.3,2.3-0.3,2.7-1.5C354.2,161.1,354.1,160.5,353.8,160z M357,143.4c1.3,0.4,2.4,1.3,3.1,2.5s0.8,2.6,0.5,3.9
		c-0.6,2.3-2.7,3.7-5,3.7c-0.5,0-0.9-0.1-1.4-0.2c-2.7-0.8-4.3-3.6-3.5-6.4S354.2,142.6,357,143.4z M355,150.5
		c1.1,0.3,2.3-0.3,2.7-1.5c0.2-0.6,0.1-1.1-0.2-1.6c-0.3-0.5-0.7-0.9-1.3-1c-0.2-0.1-0.4-0.1-0.6-0.1c-0.9,0-1.8,0.6-2.1,1.6
		C353.1,148.9,353.8,150.1,355,150.5z M76.3,107.8c-0.7,0-1.3-0.4-1.4-1.1l-2.1-7.3c-0.1-0.4-0.1-0.8,0.1-1.1
		c0.2-0.3,0.5-0.6,0.9-0.7l6.9-2c0.8-0.2,1.6,0.2,1.9,1l2.1,7.3c0.1,0.4,0.1,0.8-0.1,1.1c-0.2,0.3-0.5,0.6-0.9,0.7l-6.9,2
		C76.6,107.8,76.4,107.8,76.3,107.8z M76.1,100.1l1.3,4.4l4.1-1.2l-1.3-4.4L76.1,100.1z M360.6,130.7c1.3,0.4,2.4,1.3,3.1,2.5
		s0.8,2.6,0.5,3.9c-0.6,2.3-2.7,3.7-5,3.7c-0.5,0-0.9-0.1-1.4-0.2c-2.7-0.8-4.3-3.6-3.5-6.4C355,131.5,357.9,130,360.6,130.7z
		 M358.6,137.8c1.1,0.3,2.3-0.3,2.7-1.5c0.2-0.6,0.1-1.1-0.2-1.6c-0.3-0.5-0.7-0.9-1.3-1c-0.2-0.1-0.4-0.1-0.6-0.1
		c-0.9,0-1.8,0.6-2.1,1.6C356.8,136.3,357.4,137.5,358.6,137.8z M92.6,164.7c-0.7,0-1.3-0.4-1.4-1.1l-14.9-52.2
		c-0.1-0.4-0.1-0.8,0.1-1.1c0.2-0.3,0.5-0.6,0.9-0.7l6.9-2c0.8-0.2,1.6,0.2,1.9,1l14.9,52.2c0.1,0.4,0.1,0.8-0.1,1.1
		c-0.2,0.3-0.5,0.6-0.9,0.7l-6.9,2C92.8,164.7,92.7,164.7,92.6,164.7z M93.6,161.4l4.1-1.2l-14.1-49.3l-4.1,1.2L93.6,161.4z
		 M100.7,148.2c-0.1-0.4-0.1-0.8,0.1-1.1c0.2-0.3,0.5-0.6,0.9-0.7l6.9-2c0.8-0.2,1.6,0.2,1.9,1l2.1,7.3c0.1,0.4,0.1,0.8-0.1,1.1
		c-0.2,0.3-0.5,0.6-0.9,0.7l-6.9,2c-0.1,0-0.3,0.1-0.4,0.1c-0.7,0-1.3-0.4-1.4-1.1L100.7,148.2z M104,148.8l1.3,4.4l4.1-1.2
		l-1.3-4.4L104,148.8z M381.1,93.1c0.8-2.7,3.6-4.3,6.4-3.5l0,0c2.7,0.8,4.3,3.6,3.5,6.4c-0.6,2.3-2.7,3.7-5,3.7
		c-0.5,0-0.9-0.1-1.4-0.2C381.9,98.7,380.3,95.8,381.1,93.1z M385.5,96.6c1.1,0.3,2.3-0.3,2.7-1.5s-0.3-2.3-1.5-2.7
		c-0.2-0.1-0.4-0.1-0.6-0.1c-0.9,0-1.8,0.6-2.1,1.6C383.7,95,384.3,96.2,385.5,96.6z M327.8,173.9c0.4-1.3,1.3-2.4,2.5-3.1
		s2.6-0.8,3.9-0.5c2.7,0.8,4.3,3.6,3.5,6.4c-0.4,1.3-1.3,2.4-2.5,3.1c-0.8,0.4-1.6,0.7-2.5,0.7c-0.5,0-1-0.1-1.4-0.2
		C328.6,179.5,327,176.6,327.8,173.9z M332.2,177.4c0.6,0.2,1.1,0.1,1.6-0.2c0.5-0.3,0.9-0.7,1-1.3c0.3-1.1-0.3-2.3-1.5-2.7h0
		c-0.2-0.1-0.4-0.1-0.6-0.1c-0.4,0-0.7,0.1-1,0.3c-0.5,0.3-0.9,0.7-1,1.3C330.4,175.9,331,177.1,332.2,177.4z M132,171.7l2.1,7.3
		c0.2,0.8-0.2,1.6-1,1.9l-6.9,2c-0.1,0-0.3,0.1-0.4,0.1c-0.3,0-0.5-0.1-0.7-0.2c-0.3-0.2-0.6-0.5-0.7-0.9l-2.1-7.3
		c-0.2-0.8,0.2-1.6,1-1.9l6.9-2C130.9,170.4,131.8,170.9,132,171.7z M130.8,178.4l-1.3-4.4l-4.1,1.2l1.3,4.4L130.8,178.4z
		 M331.9,165.1c-0.7-1.2-0.8-2.6-0.5-3.9c0.4-1.3,1.3-2.4,2.5-3.1s2.6-0.8,3.9-0.5s2.4,1.3,3.1,2.5s0.8,2.6,0.5,3.9
		c-0.4,1.3-1.3,2.4-2.5,3.1c-0.8,0.4-1.6,0.7-2.5,0.7c-0.5,0-1-0.1-1.4-0.2C333.7,167.2,332.6,166.3,331.9,165.1z M334.5,163.7
		c0.3,0.5,0.7,0.9,1.3,1c0.6,0.2,1.1,0.1,1.6-0.2s0.9-0.7,1-1.3c0.2-0.6,0.1-1.1-0.2-1.6c-0.3-0.5-0.7-0.9-1.3-1
		c-0.2-0.1-0.4-0.1-0.6-0.1c-0.4,0-0.7,0.1-1,0.3c-0.5,0.3-0.9,0.7-1,1.3C334.2,162.6,334.2,163.2,334.5,163.7z M335.5,152.4
		c-0.7-1.2-0.8-2.6-0.5-3.9c0.4-1.3,1.3-2.4,2.5-3.1c1.2-0.7,2.6-0.8,3.9-0.5c1.3,0.4,2.4,1.3,3.1,2.5c0.7,1.2,0.8,2.6,0.5,3.9
		c-0.6,2.3-2.7,3.7-5,3.7c-0.5,0-0.9-0.1-1.4-0.2C337.3,154.5,336.2,153.6,335.5,152.4z M338.1,151c0.3,0.5,0.7,0.9,1.3,1
		c1.2,0.3,2.3-0.3,2.7-1.5c0.2-0.6,0.1-1.1-0.2-1.6c-0.3-0.5-0.7-0.9-1.3-1l0,0c-0.2-0.1-0.4-0.1-0.6-0.1c-0.4,0-0.7,0.1-1,0.3
		c-0.5,0.3-0.9,0.7-1,1.3C337.8,149.9,337.9,150.5,338.1,151z M338.7,135.8c0.4-1.3,1.3-2.4,2.5-3.1c1.2-0.7,2.6-0.8,3.9-0.5
		c1.3,0.4,2.4,1.3,3.1,2.5s0.8,2.6,0.5,3.9c-0.4,1.3-1.3,2.4-2.5,3.1c-0.8,0.4-1.6,0.7-2.5,0.7c-0.5,0-1-0.1-1.4-0.2
		C339.5,141.4,337.9,138.5,338.7,135.8z M343.1,139.3c0.6,0.2,1.1,0.1,1.6-0.2c0.5-0.3,0.9-0.7,1-1.3c0.2-0.6,0.1-1.1-0.2-1.6
		c-0.3-0.5-0.7-0.9-1.3-1l0,0c-0.2-0.1-0.4-0.1-0.6-0.1c-0.4,0-0.7,0.1-1,0.3c-0.5,0.3-0.9,0.7-1,1.3
		C341.3,137.8,341.9,139,343.1,139.3z M128.6,159.7l2.1,7.3c0.2,0.8-0.2,1.6-1,1.9l-6.9,2c-0.1,0-0.3,0.1-0.4,0.1
		c-0.3,0-0.5-0.1-0.7-0.2c-0.3-0.2-0.6-0.5-0.7-0.9l-2.1-7.3c-0.2-0.8,0.2-1.6,1-1.9l6.9-2C127.5,158.4,128.3,158.9,128.6,159.7z
		 M127.4,166.4l-1.3-4.4l-4.1,1.2l1.3,4.4L127.4,166.4z M86.9,100.2c-0.2-0.8,0.2-1.6,1-1.9l6.9-2c0.4-0.1,0.8-0.1,1.1,0.1
		c0.3,0.2,0.6,0.5,0.7,0.9l2.1,7.3c0.2,0.8-0.2,1.6-1,1.9l-6.9,2c-0.1,0-0.3,0.1-0.4,0.1c-0.3,0-0.5-0.1-0.7-0.2
		c-0.3-0.2-0.6-0.5-0.7-0.9L86.9,100.2z M90.2,100.8l1.3,4.4l4.1-1.2l-1.3-4.4L90.2,100.8z M87.5,96.5c-0.1,0-0.3,0.1-0.4,0.1
		c-0.7,0-1.3-0.4-1.4-1.1l-2.1-7.3c-0.2-0.8,0.2-1.6,1-1.9l6.9-2c0.4-0.1,0.8-0.1,1.1,0.1c0.3,0.2,0.6,0.5,0.7,0.9l2.1,7.3
		c0.1,0.4,0.1,0.8-0.1,1.1c-0.2,0.3-0.5,0.6-0.9,0.7L87.5,96.5z M88.1,93.2l4.1-1.2l-1.3-4.4l-4.1,1.2L88.1,93.2z M93.8,124.2
		c-0.1-0.4-0.1-0.8,0.1-1.1c0.2-0.3,0.5-0.6,0.9-0.7l6.9-2c0.4-0.1,0.8-0.1,1.1,0.1c0.3,0.2,0.6,0.5,0.7,0.9l2.1,7.3
		c0.2,0.8-0.2,1.6-1,1.9l-6.9,2c-0.1,0-0.3,0.1-0.4,0.1c-0.7,0-1.3-0.4-1.4-1.1L93.8,124.2z M97.1,124.8l1.3,4.4l4.1-1.2l-1.3-4.4
		L97.1,124.8z M97.2,136.2c-0.1-0.4-0.1-0.8,0.1-1.1c0.2-0.3,0.5-0.6,0.9-0.7l6.9-2c0.8-0.2,1.6,0.2,1.9,1l2.1,7.3
		c0.1,0.4,0.1,0.8-0.1,1.1c-0.2,0.3-0.5,0.6-0.9,0.7l-6.9,2c-0.1,0-0.3,0.1-0.4,0.1c-0.7,0-1.3-0.4-1.4-1.1L97.2,136.2z
		 M100.5,136.8l1.3,4.4l4.1-1.2l-1.3-4.4L100.5,136.8z M104.1,160.2c-0.2-0.8,0.2-1.6,1-1.9l6.9-2c0.4-0.1,0.8-0.1,1.1,0.1
		c0.3,0.2,0.6,0.5,0.7,0.9l2.1,7.3c0.2,0.8-0.2,1.6-1,1.9l-6.9,2c-0.1,0-0.3,0.1-0.4,0.1c-0.3,0-0.5-0.1-0.7-0.2
		c-0.3-0.2-0.6-0.5-0.7-0.9L104.1,160.2z M107.4,160.8l1.3,4.4l4.1-1.2l-1.3-4.4L107.4,160.8z M124.4,146.8c0.3,0.2,0.6,0.5,0.7,0.9
		l2.1,7.3c0.2,0.8-0.2,1.6-1,1.9l-6.9,2c-0.1,0-0.3,0.1-0.4,0.1c-0.7,0-1.3-0.4-1.4-1.1l-2.1-7.3c-0.1-0.4-0.1-0.8,0.1-1.1
		c0.2-0.3,0.5-0.6,0.9-0.7l6.9-2C123.7,146.5,124.1,146.6,124.4,146.8z M123.9,154.4l-1.3-4.4l-4.1,1.2l1.3,4.4L123.9,154.4z
		 M90.4,112.2c-0.1-0.4-0.1-0.8,0.1-1.1c0.2-0.3,0.5-0.6,0.9-0.7l6.9-2c0.4-0.1,0.8-0.1,1.1,0.1c0.3,0.2,0.6,0.5,0.7,0.9l2.1,7.3
		c0.2,0.8-0.2,1.6-1,1.9l-6.9,2c-0.1,0-0.3,0.1-0.4,0.1c-0.7,0-1.3-0.4-1.4-1.1L90.4,112.2z M93.7,112.8l1.3,4.4l4.1-1.2l-1.3-4.4
		L93.7,112.8z M119.5,176.7c0.2,0.8-0.2,1.6-1,1.9l-6.9,2c-0.1,0-0.3,0.1-0.4,0.1c-0.3,0-0.5-0.1-0.7-0.2c-0.3-0.2-0.6-0.5-0.7-0.9
		l-2.1-7.3c-0.2-0.8,0.2-1.6,1-1.9l6.9-2c0.4-0.1,0.8-0.1,1.1,0.1s0.6,0.5,0.7,0.9L119.5,176.7z M116.2,176.1l-1.3-4.4l-4.1,1.2
		l1.3,4.4L116.2,176.1z M353.7,89c-0.7-1.2-0.8-2.6-0.5-3.9c0.4-1.3,1.3-2.4,2.5-3.1c1.2-0.7,2.6-0.8,3.9-0.4
		c1.3,0.4,2.4,1.3,3.1,2.5s0.8,2.6,0.5,3.9c-0.4,1.3-1.3,2.4-2.5,3.1c-0.8,0.4-1.6,0.7-2.5,0.7c-0.5,0-1-0.1-1.4-0.2
		C355.4,91.1,354.3,90.2,353.7,89z M356.3,87.6c0.3,0.5,0.7,0.9,1.3,1c0.6,0.2,1.1,0.1,1.6-0.2c0.5-0.3,0.9-0.7,1-1.3
		c0.2-0.6,0.1-1.1-0.2-1.6c-0.3-0.5-0.7-0.9-1.3-1l0,0c-0.2-0.1-0.4-0.1-0.6-0.1c-0.4,0-0.7,0.1-1,0.3c-0.5,0.3-0.9,0.7-1,1.3
		C355.9,86.5,356,87.1,356.3,87.6z M114.8,111.7l2.1,7.3c0.1,0.4,0.1,0.8-0.1,1.1c-0.2,0.3-0.5,0.6-0.9,0.7l-6.9,2
		c-0.1,0-0.3,0.1-0.4,0.1c-0.7,0-1.3-0.4-1.4-1.1l-2.1-7.3c-0.1-0.4-0.1-0.8,0.1-1.1c0.2-0.3,0.5-0.6,0.9-0.7l6.9-2
		C113.8,110.4,114.6,110.9,114.8,111.7z M113.6,118.4l-1.3-4.4l-4.1,1.2l1.3,4.4L113.6,118.4z M342.3,123.1c0.8-2.7,3.7-4.3,6.4-3.5
		c1.3,0.4,2.4,1.3,3.1,2.5s0.8,2.6,0.5,3.9c-0.6,2.3-2.7,3.7-5,3.7c-0.5,0-0.9-0.1-1.4-0.2C343.1,128.7,341.5,125.8,342.3,123.1z
		 M346.7,126.6c1.1,0.3,2.3-0.3,2.7-1.5c0.2-0.6,0.1-1.1-0.2-1.6c-0.3-0.5-0.7-0.9-1.3-1c-0.2-0.1-0.4-0.1-0.6-0.1
		c-0.9,0-1.8,0.6-2.1,1.6C344.9,125.1,345.6,126.3,346.7,126.6z M372.8,74.9c-0.7-1.2-0.8-2.6-0.5-3.9c0.8-2.7,3.6-4.3,6.4-3.5l0,0
		c2.7,0.8,4.3,3.6,3.5,6.4c-0.6,2.3-2.7,3.7-5,3.7c-0.5,0-0.9-0.1-1.4-0.2C374.5,77,373.4,76.1,372.8,74.9z M375.4,73.5
		c0.3,0.5,0.7,0.9,1.3,1c1.2,0.3,2.3-0.3,2.7-1.5c0.3-1.1-0.3-2.3-1.5-2.7c-0.2-0.1-0.4-0.1-0.6-0.1c-0.9,0-1.8,0.6-2.1,1.6
		C375,72.4,375.1,73,375.4,73.5z M369.2,87.6c-0.7-1.2-0.8-2.6-0.5-3.9c0.4-1.3,1.3-2.4,2.5-3.1c1.2-0.7,2.6-0.8,3.9-0.5
		c1.3,0.4,2.4,1.3,3.1,2.5c0.7,1.2,0.8,2.6,0.5,3.9c-0.4,1.3-1.3,2.4-2.5,3.1c-0.8,0.4-1.6,0.7-2.5,0.7c-0.5,0-1-0.1-1.4-0.2
		C370.9,89.6,369.8,88.8,369.2,87.6z M371.8,86.1c0.3,0.5,0.7,0.9,1.3,1c0.6,0.2,1.1,0.1,1.6-0.2c0.5-0.3,0.9-0.7,1-1.3
		c0.2-0.6,0.1-1.1-0.2-1.6c-0.3-0.5-0.7-0.9-1.3-1l0,0c-0.2-0.1-0.4-0.1-0.6-0.1c-0.4,0-0.7,0.1-1,0.3c-0.5,0.3-0.9,0.7-1,1.3
		C371.4,85,371.5,85.6,371.8,86.1z M387.4,108.5c-0.6,2.3-2.7,3.7-5,3.7c-0.5,0-0.9-0.1-1.4-0.2c-1.3-0.4-2.4-1.3-3.1-2.5
		s-0.8-2.6-0.5-3.9c0.8-2.7,3.6-4.3,6.4-3.5l0,0C386.6,102.9,388.2,105.8,387.4,108.5z M383,105c-0.2-0.1-0.4-0.1-0.6-0.1
		c-0.9,0-1.8,0.6-2.1,1.6c-0.2,0.6-0.1,1.1,0.2,1.6c0.3,0.5,0.7,0.9,1.3,1c1.1,0.3,2.3-0.3,2.7-1.5C384.9,106.6,384.2,105.4,383,105
		z M380.2,133.9c-0.6,2.3-2.7,3.7-5,3.7c-0.5,0-0.9-0.1-1.4-0.2c-1.3-0.4-2.4-1.3-3.1-2.5s-0.8-2.6-0.5-3.9c0.8-2.7,3.6-4.3,6.4-3.5
		l0,0C379.3,128.3,380.9,131.2,380.2,133.9z M375.8,130.4c-0.2-0.1-0.4-0.1-0.6-0.1c-0.9,0-1.8,0.6-2.1,1.6
		c-0.2,0.6-0.1,1.1,0.2,1.6c0.3,0.5,0.7,0.9,1.3,1c1.1,0.3,2.3-0.3,2.7-1.5C377.6,131.9,376.9,130.7,375.8,130.4z M107.3,86.8
		c0.3,0.2,0.6,0.5,0.7,0.9l2.1,7.3c0.1,0.4,0.1,0.8-0.1,1.1c-0.2,0.3-0.5,0.6-0.9,0.7l-6.9,2c-0.1,0-0.3,0.1-0.4,0.1
		c-0.7,0-1.3-0.4-1.4-1.1l-2.1-7.3c-0.2-0.8,0.2-1.6,1-1.9l6.9-2C106.5,86.5,106.9,86.6,107.3,86.8z M106.8,94.4l-1.3-4.4l-4.1,1.2
		l1.3,4.4L106.8,94.4z M383.3,117.3c0.7,1.2,0.8,2.6,0.5,3.9c-0.6,2.3-2.7,3.7-5,3.7c-0.5,0-0.9-0.1-1.4-0.2
		c-1.3-0.4-2.4-1.3-3.1-2.5c-0.7-1.2-0.8-2.6-0.5-3.9c0.8-2.7,3.6-4.3,6.4-3.5C381.6,115.2,382.7,116.1,383.3,117.3z M380.7,118.8
		c-0.3-0.5-0.7-0.9-1.3-1c-0.2-0.1-0.4-0.1-0.6-0.1c-0.9,0-1.8,0.6-2.1,1.6c-0.2,0.6-0.1,1.1,0.2,1.6c0.3,0.5,0.7,0.9,1.3,1
		c1.1,0.3,2.3-0.3,2.7-1.5C381.1,119.8,381,119.3,380.7,118.8z M111.4,99.7l2.1,7.3c0.1,0.4,0.1,0.8-0.1,1.1
		c-0.2,0.3-0.5,0.6-0.9,0.7l-6.9,2c-0.1,0-0.3,0.1-0.4,0.1c-0.7,0-1.3-0.4-1.4-1.1l-2.1-7.3c-0.1-0.4-0.1-0.8,0.1-1.1
		c0.2-0.3,0.5-0.6,0.9-0.7l6.9-2C110.3,98.4,111.2,98.9,111.4,99.7z M110.2,106.4l-1.3-4.4l-4.1,1.2l1.3,4.4L110.2,106.4z
		 M121,134.8c0.3,0.2,0.6,0.5,0.7,0.9l2.1,7.3c0.2,0.8-0.2,1.6-1,1.9l-6.9,2c-0.1,0-0.3,0.1-0.4,0.1c-0.7,0-1.3-0.4-1.4-1.1
		l-2.1-7.3c-0.2-0.8,0.2-1.6,1-1.9l6.9-2C120.2,134.5,120.6,134.6,121,134.8z M120.5,142.4l-1.3-4.4l-4.1,1.2l1.3,4.4L120.5,142.4z
		 M349.6,97.7c0.8-2.7,3.6-4.3,6.4-3.5c1.3,0.4,2.4,1.3,3.1,2.5s0.8,2.6,0.5,3.9c-0.6,2.3-2.7,3.7-5,3.7c-0.5,0-0.9-0.1-1.4-0.2
		C350.4,103.3,348.8,100.4,349.6,97.7z M354,101.2c1.1,0.3,2.3-0.3,2.7-1.5c0.2-0.6,0.1-1.1-0.2-1.6c-0.3-0.5-0.7-0.9-1.3-1
		c-0.2-0.1-0.4-0.1-0.6-0.1c-0.9,0-1.8,0.6-2.1,1.6C352.1,99.7,352.8,100.9,354,101.2z M346.4,114.3c-0.7-1.2-0.8-2.6-0.5-3.9
		c0.8-2.7,3.6-4.3,6.4-3.5c1.3,0.4,2.4,1.3,3.1,2.5c0.7,1.2,0.8,2.6,0.5,3.9c-0.6,2.3-2.7,3.7-5,3.7c-0.5,0-0.9-0.1-1.4-0.2
		C348.2,116.4,347.1,115.5,346.4,114.3z M349,112.9c0.3,0.5,0.7,0.9,1.3,1c1.1,0.3,2.3-0.3,2.7-1.5c0.2-0.6,0.1-1.1-0.2-1.6
		c-0.3-0.5-0.7-0.9-1.3-1c-0.2-0.1-0.4-0.1-0.6-0.1c-0.9,0-1.8,0.6-2.1,1.6C348.7,111.8,348.8,112.4,349,112.9z M118.3,123.7
		l2.1,7.3c0.1,0.4,0.1,0.8-0.1,1.1c-0.2,0.3-0.5,0.6-0.9,0.7l-6.9,2c-0.1,0-0.3,0.1-0.4,0.1c-0.7,0-1.3-0.4-1.4-1.1l-2.1-7.3
		c-0.1-0.4-0.1-0.8,0.1-1.1c0.2-0.3,0.5-0.6,0.9-0.7l6.9-2C117.2,122.4,118,122.9,118.3,123.7z M117.1,130.4l-1.3-4.4l-4.1,1.2
		l1.3,4.4L117.1,130.4z M357.3,76.4c-0.7-1.2-0.8-2.6-0.5-3.9c0.4-1.3,1.3-2.4,2.5-3.1c1.2-0.7,2.6-0.8,3.9-0.4
		c2.7,0.8,4.3,3.6,3.5,6.4c-0.4,1.3-1.3,2.4-2.5,3.1c-0.8,0.4-1.6,0.7-2.5,0.7c-0.5,0-1-0.1-1.4-0.2C359,78.5,357.9,77.6,357.3,76.4
		z M359.9,74.9c0.3,0.5,0.7,0.9,1.3,1c0.6,0.2,1.1,0.1,1.6-0.2s0.9-0.7,1-1.3c0.3-1.1-0.3-2.3-1.5-2.7l0,0c-0.2-0.1-0.4-0.1-0.6-0.1
		c-0.4,0-0.7,0.1-1,0.3c-0.5,0.3-0.9,0.7-1,1.3C359.5,73.8,359.6,74.4,359.9,74.9z M376.5,146.6c-0.6,2.3-2.7,3.7-5,3.7
		c-0.5,0-0.9-0.1-1.4-0.2c-2.7-0.8-4.3-3.6-3.5-6.4c0.8-2.7,3.6-4.3,6.4-3.5l0,0C375.7,141,377.3,143.9,376.5,146.6z M372.2,143.1
		c-0.2-0.1-0.4-0.1-0.6-0.1c-0.9,0-1.8,0.6-2.1,1.6c-0.3,1.1,0.3,2.3,1.5,2.7c1.1,0.3,2.3-0.3,2.7-1.5
		C374,144.6,373.3,143.4,372.2,143.1z M368.7,102.6c-2.7-0.8-4.3-3.6-3.5-6.4c0.8-2.7,3.6-4.3,6.4-3.5l0,0c2.7,0.8,4.3,3.6,3.5,6.4
		c-0.6,2.3-2.7,3.7-5,3.7C369.6,102.8,369.1,102.7,368.7,102.6z M369.5,99.7c1.1,0.3,2.3-0.3,2.7-1.5c0.3-1.1-0.3-2.3-1.5-2.7
		c-0.2-0.1-0.4-0.1-0.6-0.1c-0.9,0-1.8,0.6-2.1,1.6C367.7,98.2,368.3,99.4,369.5,99.7z M62.9,260.3l1.9,0.7c0.3,0.1,0.5,0,0.6-0.3
		c0.2-0.6,0.7-1.6,1.6-2c1.2-0.6,2.2-0.2,2.6,0.7c0.3,0.6,0.3,1.3,0.2,1.9c-0.4,2.5-1.5,8.3-2,10.5l0.2,0.4c0.1,0.2,0.4,0.3,0.6,0.2
		l8.6-4c0.2-0.1,0.3-0.4,0.2-0.6l-0.9-1.9c-0.1-0.2-0.4-0.3-0.6-0.2l-3.8,1.8c0.3-1.9,1-5,1.2-6.5c0-1.2,0.1-2-0.5-3.2
		c-1.1-2.4-3.8-3.5-6.9-2.1c-2.6,1.2-3.3,4.1-3.3,4.1C62.5,260,62.7,260.2,62.9,260.3z M75.6,260.2c-2.2-4.7-1.5-8.4,2-10.1
		c3.5-1.6,6.8,0.2,9,4.9c2.2,4.7,1.5,8.4-2,10.1C81.1,266.8,77.8,264.9,75.6,260.2z M79.1,258.6c1.3,2.8,2.8,4.1,4.1,3.4
		c1.3-0.6,1.3-2.5,0-5.3c-1.3-2.8-2.8-4.1-4.1-3.4C77.8,253.9,77.8,255.8,79.1,258.6z M378.5,254l2.1,1l-4.5,9.6
		c-0.1,0.2,0,0.5,0.2,0.6l2.4,1.1c0.2,0.1,0.5,0,0.6-0.2l6.4-13.8c0.1-0.2,0-0.5-0.2-0.6l-2-0.9l-4.3,1c-0.1,0-0.2,0.2-0.3,0.3
		l-0.6,1.4C378.2,253.6,378.3,253.9,378.5,254z M387.6,256.1l5,2.3l-10.6,8.7l-0.1,0.2c-0.1,0.2,0,0.5,0.2,0.6l2.1,1
		c0.3,0.2,0.7,0.2,1.2-0.2l12.7-10.4l0.1-0.1c0.1-0.2,0-0.5-0.2-0.6l-9-4.2c-0.2-0.1-0.5,0-0.6,0.2l-0.9,1.9
		C387.3,255.7,387.4,256,387.6,256.1z"/>
</g>
<g id="Cream">
	<g>
		<path class="st2" d="M117.8,217.6l3.3,10.3l1.3-0.2l0,4.2c-3.2,0.8-5.6,0.9-7.4,0.6l-0.1-2l-0.8-2.5l-3.3,0.4l0.8,2.6l1.3-0.2
			l0,4.2c-3.2,0.8-5.9,1-7.7,0.7l-0.1-2l-3.4-10.4l-1.3,0.2l0-4.3c2.9-0.8,5.4-0.9,7.6-0.6l0.1,2.2l1.2,3.7l3.4,0l-1.4-4.3l-1.2,0.2
			l0-4.3c2.8-0.7,5.1-0.8,7.3-0.5L117.8,217.6z"/>
		<path class="st2" d="M136,224.6l-0.4-1.2l-3.1,0.5l0.2,1.3l1.3-0.1l-0.2,3.6c-2.9,0.6-5.5,0.5-7.1,0.1l-0.8-14.8l4-3.9
			c2.7-0.3,6.2,0.2,8.2,0.8l4.6,11.1l1.2-0.1l-0.2,4.2c-3.4,0.7-6,0.7-7.9,0.3L136,224.6z M131.8,220.1l2.7,0.1l-1.8-5.2l-1.6,0
			L131.8,220.1z"/>
		<path class="st2" d="M162.6,217.6l-0.5,3.3l-4.8,2.7c-3.4,0.3-7-0.1-9-0.8l-3-13.9l5.3-3.8c1.6-0.1,3.4,0,5.1,0.3l0.8-1.5l2.7-0.2
			l1.6,9.9l-4.9,0.3l-0.5-3.5l-2.3-0.5l1.8,8.4L162.6,217.6z"/>
		<path class="st2" d="M176,214.7l-1.8-1.2l0.4,2.5l1.3,0l-0.7,3.8c-3.2,0.3-5.9,0-7.7-0.5l0.3-2l-1.7-10.8l-1.3,0l0.7-4.2
			c2.9-0.3,5.5,0,7.6,0.6l-0.2,2.1l0.9,5.5l1.5-1.3l0.3-8.8c2.3,0.1,5.5,1.1,7,2.3l-0.8,4.7l-2.2,1.9l3.5,1.6l1.1,3.2l1.3,0.1
			l-0.7,4.1c-3.3,0.3-5.7,0.2-7.4-0.3L176,214.7z"/>
		<path class="st2" d="M200.6,212.3l-1,4.4c-3.2,0.1-6.8-0.1-8.9-0.7l0.8-3.4l-0.8-7.6l-3.9-0.3l1.2-5.5l9.2-0.5l0.9-1.3l2.8,0
			l0.3,7.5l-3.6-0.3l0.8,7.5L200.6,212.3z"/>
		<path class="st2" d="M222.7,213.2l-7,2.6c-3.5-0.2-6.7-0.9-9.1-1.8l-0.7-14.3l6.6-3.2c3.2,0.3,7.1,1.4,9.5,2.4L222.7,213.2z
			 M215.4,202.1l-2.2-0.4l0.3,6.5l-0.6,2.4l3,0.5L215.4,202.1z"/>
		<path class="st2" d="M234,215.3c-2-0.3-4.1-1.1-5.2-1.8l0.2-12.1l-1.3,0.3l-0.7-3.8l10-1.9c2.7,0.7,5.7,2.4,7.8,4l-2.6,4.9
			c1,0.7,2.1,1.5,2.9,2.3l-0.1,6.3l-4.9,2c-1.7-0.2-4.1-1.1-5.4-1.9L234,215.3z M238.9,209.7c-1-0.9-2.2-1.8-3.3-2.4l0,2.8l3.3,1
			L238.9,209.7z M235.7,205.1l2.1-1.1l0-2.8l-2.1-0.6L235.7,205.1z"/>
		<path class="st2" d="M250.6,207l-0.2-7.7l6.5-2.1c1.4,0.3,2.9,0.8,4.3,1.5l1-1.1l2.7,0.5l-1.1,8.1l-4.7-1.1l0.4-2.4l-2.2-1
			l0.1,4.5l5.8,1.2l-1.6,3.7c-1.5-0.4-3.5-1.1-4.6-1.8l-0.6,2l8.1,1.7l-1.3,2.6l-5.2,1.2c-3.3-0.7-7.1-2.1-8.9-3.3L250.6,207z"/>
		<path class="st2" d="M285.8,219.6c-3-0.6-5.1-1.3-6.6-2.1l-0.6-2.9l-1.6-1.5l-0.2,1.8l1.4,0.4l-1.6,3.1c-3.4-0.6-6-1.6-7.4-2.7
			l0.7-1.6l1.4-10.3l-1.3,0.1l-0.3-3.8l10.4-0.7c2.2,0.9,5.3,2.9,7.1,4.5l-0.9,6.3l-3.1,1l2.6,1.6l0.6,2.7l1.1,0.4L285.8,219.6z
			 M277.5,210.4l2.3-0.6l0.7-5.1l-2.1-0.9L277.5,210.4z"/>
		<path class="st2" d="M300.3,202.9c1.3,0.4,2.7,1.1,3.9,1.8l0.9-0.9l2.6,0.8l-2,8.3l-4.2-1.5l0.6-2.3l-2-1.1l-0.4,4.5l5.7,1.8
			l-2.4,4.2c-1.1-0.5-3.4-1.5-4.1-2.1l-0.6,1.4l2.5,0.8l-1.9,3.5c-3.1-0.7-6.3-2.1-7.9-3.3l1.3-2.7l0.7-11.9L300.3,202.9z"/>
		<path class="st2" d="M311.3,215.7l1.1-7.7l6.7-1.1c1.4,0.5,2.8,1.3,4,2.1l1.2-0.9l2.6,1l-2.3,7.9l-4.5-1.9l0.8-2.3l-2-1.4
			l-0.6,4.5l5.5,2.1l-2.2,3.4c-1.4-0.6-3.3-1.7-4.2-2.5l-0.9,1.9l7.7,2.9l-1.7,2.4l-5.4,0.4c-3.2-1.2-6.7-3.2-8.3-4.7L311.3,215.7z"
			/>
		<path class="st2" d="M330.4,219.7l1.7-6.9l6.8-0.9c2.9,1.4,4.7,3,6.4,4.8l-4,3.9l-2.5-3.4l-0.4,1.5l3.8,5.2l-1.6,6.7l-6.3,0.2
			c-2.8-1.2-5.9-3.1-7.5-4.7l3.2-4.6l4.4,4.9l0.4-1.4L330.4,219.7z"/>
		<path class="st2" d="M355.4,232.9l-2.7,3.6c-2.9-1.2-6.2-2.9-7.8-4.3l2.1-2.8l2.4-7.2l-3.4-1.9l3.4-4.5l8.6,3.4l1.3-0.8l2.5,1.2
			l-2.8,7l-3.1-1.7l-2.4,7.2L355.4,232.9z"/>
	</g>
</g>
</svg>
