<svg width="2292" height="148" viewBox="0 0 2292 148" fill="none" xmlns="http://www.w3.org/2000/svg">
<path d="M138.4 3.99999V144H91.2V92.4H47.6V144H0.400001V3.99999H47.6V53.6H91.2V3.99999H138.4ZM292.542 119.6H239.342L229.942 144H181.942L243.142 3.99999H289.542L350.742 144H301.942L292.542 119.6ZM279.542 85.6L265.942 50.4L252.342 85.6H279.542ZM464.722 147.2C449.922 147.2 436.589 144.133 424.722 138C412.855 131.733 403.522 123.067 396.722 112C390.055 100.8 386.722 88.1333 386.722 74C386.722 59.8667 390.055 47.2667 396.722 36.2C403.522 25 412.855 16.3333 424.722 10.2C436.589 3.93333 449.922 0.799996 464.722 0.799996C478.322 0.799996 490.455 3.2 501.122 8C511.789 12.8 520.589 19.7333 527.522 28.8L497.722 55.4C489.055 44.4667 478.855 39 467.122 39C457.255 39 449.322 42.2 443.322 48.6C437.322 54.8667 434.322 63.3333 434.322 74C434.322 84.6667 437.322 93.2 443.322 99.6C449.322 105.867 457.255 109 467.122 109C478.855 109 489.055 103.533 497.722 92.6L527.522 119.2C520.589 128.267 511.789 135.2 501.122 140C490.455 144.8 478.322 147.2 464.722 147.2ZM634.15 97.6L623.55 109.4V144H577.15V3.99999H623.55V54.8L669.55 3.99999H720.95L664.95 65.6L723.75 144H669.15L634.15 97.6ZM785.542 40.6H744.542V3.99999H873.742V40.6H832.742V144H785.542V40.6ZM993.448 147.2C978.382 147.2 964.848 144.067 952.848 137.8C940.848 131.533 931.448 122.867 924.648 111.8C917.848 100.6 914.448 88 914.448 74C914.448 60 917.848 47.4667 924.648 36.4C931.448 25.2 940.848 16.4667 952.848 10.2C964.848 3.93333 978.382 0.799996 993.448 0.799996C1008.52 0.799996 1022.05 3.93333 1034.05 10.2C1046.05 16.4667 1055.45 25.2 1062.25 36.4C1069.05 47.4667 1072.45 60 1072.45 74C1072.45 88 1069.05 100.6 1062.25 111.8C1055.45 122.867 1046.05 131.533 1034.05 137.8C1022.05 144.067 1008.52 147.2 993.448 147.2ZM993.448 109C999.315 109 1004.58 107.6 1009.25 104.8C1014.05 101.867 1017.85 97.8 1020.65 92.6C1023.45 87.2667 1024.85 81.0667 1024.85 74C1024.85 66.9333 1023.45 60.8 1020.65 55.6C1017.85 50.2667 1014.05 46.2 1009.25 43.4C1004.58 40.4667 999.315 39 993.448 39C987.582 39 982.248 40.4667 977.448 43.4C972.782 46.2 969.048 50.2667 966.248 55.6C963.448 60.8 962.048 66.9333 962.048 74C962.048 81.0667 963.448 87.2667 966.248 92.6C969.048 97.8 972.782 101.867 977.448 104.8C982.248 107.6 987.582 109 993.448 109ZM1237.58 70.8C1245.85 73.8667 1252.25 78.3333 1256.78 84.2C1261.31 90.0667 1263.58 97.1333 1263.58 105.4C1263.58 117.667 1258.51 127.2 1248.38 134C1238.25 140.667 1223.58 144 1204.38 144H1125.58V3.99999H1200.38C1219.05 3.99999 1233.11 7.33332 1242.58 14C1252.18 20.6667 1256.98 29.5333 1256.98 40.6C1256.98 47.1333 1255.31 53 1251.98 58.2C1248.78 63.4 1243.98 67.6 1237.58 70.8ZM1171.98 37V57.8H1193.98C1204.25 57.8 1209.38 54.3333 1209.38 47.4C1209.38 40.4667 1204.25 37 1193.98 37H1171.98ZM1200.38 111C1210.78 111 1215.98 107.333 1215.98 100C1215.98 92.6667 1210.78 89 1200.38 89H1171.98V111H1200.38ZM1432.67 108.4V144H1316.27V3.99999H1430.07V39.6H1362.67V56H1421.87V90H1362.67V108.4H1432.67ZM1546.84 108.8H1534.04V144H1486.84V3.99999H1554.24C1567.17 3.99999 1578.44 6.13332 1588.04 10.4C1597.64 14.6667 1605.04 20.8 1610.24 28.8C1615.44 36.8 1618.04 46.1333 1618.04 56.8C1618.04 66.8 1615.77 75.5333 1611.24 83C1606.7 90.4667 1600.17 96.4 1591.64 100.8L1621.04 144H1570.64L1546.84 108.8ZM1570.44 56.8C1570.44 51.6 1568.84 47.6 1565.64 44.8C1562.44 41.8667 1557.64 40.4 1551.24 40.4H1534.04V73.2H1551.24C1557.64 73.2 1562.44 71.8 1565.64 69C1568.84 66.0667 1570.44 62 1570.44 56.8ZM1719.06 39.6V63.6H1777.46V99.2H1719.06V144H1671.86V3.99999H1785.66V39.6H1719.06ZM1952.97 108.4V144H1836.57V3.99999H1950.37V39.6H1882.97V56H1942.17V90H1882.97V108.4H1952.97ZM2059.34 147.2C2047.74 147.2 2036.41 145.933 2025.34 143.4C2014.41 140.733 2005.41 137.2 1998.34 132.8L2013.54 98.4C2020.21 102.267 2027.68 105.4 2035.94 107.8C2044.21 110.067 2052.14 111.2 2059.74 111.2C2066.28 111.2 2070.94 110.6 2073.74 109.4C2076.54 108.067 2077.94 106.133 2077.94 103.6C2077.94 100.667 2076.08 98.4667 2072.34 97C2068.74 95.5333 2062.74 93.9333 2054.34 92.2C2043.54 89.9333 2034.54 87.5333 2027.34 85C2020.14 82.3333 2013.88 78.0667 2008.54 72.2C2003.21 66.2 2000.54 58.1333 2000.54 48C2000.54 39.2 2003.01 31.2 2007.94 24C2012.88 16.8 2020.21 11.1333 2029.94 6.99999C2039.81 2.86666 2051.74 0.799996 2065.74 0.799996C2075.34 0.799996 2084.74 1.86666 2093.94 3.99999C2103.28 5.99999 2111.48 8.99999 2118.54 13L2104.34 47.2C2090.61 40.2667 2077.61 36.8 2065.34 36.8C2053.21 36.8 2047.14 39.7333 2047.14 45.6C2047.14 48.4 2048.94 50.5333 2052.54 52C2056.14 53.3333 2062.08 54.8 2070.34 56.4C2081.01 58.4 2090.01 60.7333 2097.34 63.4C2104.68 65.9333 2111.01 70.1333 2116.34 76C2121.81 81.8667 2124.54 89.8667 2124.54 100C2124.54 108.8 2122.08 116.8 2117.14 124C2112.21 131.067 2104.81 136.733 2094.94 141C2085.21 145.133 2073.34 147.2 2059.34 147.2ZM2203.03 40.6H2162.03V3.99999H2291.23V40.6H2250.23V144H2203.03V40.6Z" fill="#EB7E32"/>
</svg>
