<?xml version="1.0" encoding="UTF-8" standalone="no"?>
<svg
   xmlns:dc="http://purl.org/dc/elements/1.1/"
   xmlns:cc="http://creativecommons.org/ns#"
   xmlns:rdf="http://www.w3.org/1999/02/22-rdf-syntax-ns#"
   xmlns:svg="http://www.w3.org/2000/svg"
   xmlns="http://www.w3.org/2000/svg"
   viewBox="0 0 873.5733 157.22667"
   height="157.22667"
   width="873.5733"
   xml:space="preserve"
   id="svg2"
   version="1.1"><metadata
     id="metadata8"><rdf:RDF><cc:Work
         rdf:about=""><dc:format>image/svg+xml</dc:format><dc:type
           rdf:resource="http://purl.org/dc/dcmitype/StillImage" /></cc:Work></rdf:RDF></metadata><defs
     id="defs6" /><g
     transform="matrix(1.3333333,0,0,-1.3333333,0,157.22667)"
     id="g10"><g
       transform="scale(0.1)"
       id="g12"><path
         id="path14"
         style="fill:#f25c19;fill-opacity:1;fill-rule:evenodd;stroke:none"
         d="M 868.586,947.426 728.598,977.57 697.551,1117.44 561.262,1073.55 464.613,1179.2 368.398,1073.04 231.773,1116.16 201.531,976.242 61.7617,945.27 105.574,808.93 0,712.145 106.094,616.039 63.0391,479.469 202.953,449.273 233.93,309.359 370.34,353.125 467.008,247.621 563.23,353.715 699.777,310.59 730.09,450.508 869.793,481.551 826.004,617.938 931.625,714.652 825.48,810.777 Z m -402.953,88.434 c -178.063,0 -322.903,-144.844 -322.903,-322.794 0,-178.039 144.84,-322.855 322.903,-322.855 177.996,0 322.832,144.816 322.832,322.855 0,177.95 -144.836,322.794 -322.832,322.794 z M 262.039,914.578 c 112.445,112.372 295.172,112.372 407.52,0.024 112.254,-112.254 112.3,-295.055 -0.094,-407.426 -112.297,-112.278 -294.981,-112.278 -407.426,0.07 -112.297,112.301 -112.297,295.031 0,407.332" /><path
         id="path16"
         style="fill:#3263a5;fill-opacity:1;fill-rule:nonzero;stroke:none"
         d="m 1959.67,225.172 h -140.04 v -56.211 h 128.55 V 123 H 1819.63 V 54.9609 h 146.5 V 7.37109 H 1765.58 V 272.023 h 194.09 v -46.851" /><path
         id="path18"
         style="fill:#3263a5;fill-opacity:1;fill-rule:nonzero;stroke:none"
         d="m 2012,272.023 h 57.97 L 2175.03,87.5 v 184.523 h 51.53 V 7.37109 h -55.29 L 2063.53,195.152 V 7.37109 H 2012 V 272.023" /><path
         id="path20"
         style="fill:#3263a5;fill-opacity:1;fill-rule:nonzero;stroke:none"
         d="m 2474.41,272.023 v -46.851 h -79.17 V 7.37109 h -55.66 V 225.172 h -79.54 v 46.851 h 214.37" /><path
         id="path22"
         style="fill:#3263a5;fill-opacity:1;fill-rule:nonzero;stroke:none"
         d="m 2706.12,225.172 h -140.04 v -56.211 h 128.55 V 123 H 2566.08 V 54.9609 h 146.51 V 7.37109 H 2512.04 V 272.023 h 194.08 v -46.851" /><path
         id="path24"
         style="fill:#3263a5;fill-opacity:1;fill-rule:nonzero;stroke:none"
         d="m 2814.64,226.059 v -71.098 h 59.51 c 11.83,0 20.69,1.43 26.62,4.309 10.44,5.019 15.66,14.96 15.66,29.8 0,16.043 -5.03,26.813 -15.13,32.321 -5.7,3.113 -14.22,4.668 -25.61,4.668 z m 114.29,39.14 c 9.77,-4.187 18.05,-10.363 24.8,-18.48 5.6,-6.727 10.05,-14.149 13.31,-22.266 3.25,-8.164 4.88,-17.426 4.88,-27.84 0,-12.566 -3.16,-24.922 -9.52,-37.082 -6.33,-12.14 -16.81,-20.73 -31.41,-25.761 12.21,-4.911 20.87,-11.872 25.95,-20.918 5.07,-9.032 7.61,-22.8403 7.61,-41.3715 V 53.6992 c 0,-12.0898 0.53,-20.2773 1.48,-24.5898 1.44,-6.8477 4.89,-11.8711 10.2,-15.0781 V 7.37109 h -61.04 c -1.68,5.86721 -2.88,10.57811 -3.59,14.16801 -1.44,7.4297 -2.21,15.039 -2.35,22.8203 l -0.34,24.582 c -0.24,16.9102 -3.16,28.1289 -8.76,33.7576 -5.6,5.621 -16.08,8.449 -31.5,8.449 h -54.01 V 7.37109 h -54.05 V 272.023 h 126.59 c 18.1,-0.359 32.03,-2.632 41.75,-6.824" /><path
         id="path26"
         style="fill:#3263a5;fill-opacity:1;fill-rule:nonzero;stroke:none"
         d="m 3164.04,217.273 c -7.02,5.84 -16.83,8.786 -29.45,8.786 h -49.82 v -77.918 h 49.82 c 12.62,0 22.43,3.16 29.45,9.519 6.99,6.32 10.51,16.379 10.51,30.168 0,13.742 -3.52,23.555 -10.51,29.445 z m 42.2,-95.351 C 3190.75,109 3168.61,102.531 3139.86,102.531 h -55.09 V 7.37109 h -54.96 V 272.023 h 113.64 c 26.19,0 47.09,-6.824 62.67,-20.468 15.56,-13.649 23.34,-34.785 23.34,-63.391 0,-31.215 -7.73,-53.312 -23.22,-66.242" /><path
         id="path28"
         style="fill:#3263a5;fill-opacity:1;fill-rule:nonzero;stroke:none"
         d="m 3332.81,226.059 v -71.098 h 59.51 c 11.83,0 20.69,1.43 26.6,4.309 10.46,5.019 15.68,14.96 15.68,29.8 0,16.043 -5.05,26.813 -15.15,32.321 -5.7,3.113 -14.22,4.668 -25.6,4.668 z m 114.29,39.14 c 9.76,-4.187 18.02,-10.363 24.77,-18.48 5.6,-6.727 10.06,-14.149 13.31,-22.266 3.28,-8.164 4.91,-17.426 4.91,-27.84 0,-12.566 -3.18,-24.922 -9.53,-37.082 -6.34,-12.14 -16.8,-20.73 -31.41,-25.761 12.21,-4.911 20.86,-11.872 25.95,-20.918 5.08,-9.032 7.62,-22.8403 7.62,-41.3715 V 53.6992 c 0,-12.0898 0.5,-20.2773 1.46,-24.5898 1.46,-6.8477 4.88,-11.8711 10.22,-15.0781 V 7.37109 h -61.05 c -1.67,5.86721 -2.87,10.57811 -3.59,14.16801 -1.43,7.4297 -2.22,15.039 -2.34,22.8203 l -0.34,24.582 c -0.24,16.9102 -3.16,28.1289 -8.76,33.7576 -5.6,5.621 -16.11,8.449 -31.5,8.449 h -54.01 V 7.37109 h -54.06 V 272.023 h 126.59 c 18.1,-0.359 32.01,-2.632 41.76,-6.824" /><path
         id="path30"
         style="fill:#3263a5;fill-opacity:1;fill-rule:nonzero;stroke:none"
         d="m 3597.2,7.37109 h -54.97 V 272.023 h 54.97 V 7.37109" /><path
         id="path32"
         style="fill:#3263a5;fill-opacity:1;fill-rule:nonzero;stroke:none"
         d="m 3692.45,89.0508 c 1.7,-12.0899 5.07,-21.1094 10.08,-27.1016 9.17,-10.8906 24.87,-16.3203 47.11,-16.3203 13.34,0 24.13,1.4297 32.46,4.3125 15.75,5.4805 23.65,15.7188 23.65,30.6875 0,8.7305 -3.87,15.4922 -11.58,20.3011 -7.73,4.64 -19.99,8.781 -36.75,12.371 l -28.65,6.301 c -28.16,6.199 -47.52,12.976 -58.03,20.277 -17.86,12.211 -26.77,31.293 -26.77,57.285 0,23.699 8.72,43.379 26.17,59.059 17.45,15.679 43.09,23.531 76.89,23.531 28.23,0 52.31,-7.399 72.25,-22.191 19.92,-14.77 30.38,-36.243 31.34,-64.372 h -53.15 c -0.98,15.918 -8.09,27.243 -21.33,33.946 -8.86,4.429 -19.82,6.652 -32.96,6.652 -14.61,0 -26.26,-2.871 -34.98,-8.617 -8.71,-5.746 -13.05,-13.789 -13.05,-24.082 0,-9.457 4.29,-16.52 12.88,-21.164 5.51,-3.137 17.24,-6.778 35.15,-10.965 L 3789.62,158 c 20.37,-4.789 35.62,-11.18 45.8,-19.199 15.75,-12.449 23.65,-30.481 23.65,-54.0627 0,-24.168 -9.34,-44.2383 -28.04,-60.2266 -18.69,-15.96092 -45.1,-23.960919 -79.21,-23.960919 -34.86,0 -62.24,7.878909 -82.21,23.597619 -19.96,15.7618 -29.95,37.3711 -29.95,64.9024 h 52.79" /><path
         id="path34"
         style="fill:#3263a5;fill-opacity:1;fill-rule:nonzero;stroke:none"
         d="m 4097.22,225.172 h -140.05 v -56.211 h 128.56 V 123 H 3957.17 V 54.9609 h 146.51 V 7.37109 H 3903.14 V 272.023 h 194.08 v -46.851" /><path
         id="path36"
         style="fill:#3263a5;fill-opacity:1;fill-rule:nonzero;stroke:none"
         d="m 4296.18,89.0508 c 1.7,-12.0899 5.07,-21.1094 10.07,-27.1016 9.17,-10.8906 24.88,-16.3203 47.12,-16.3203 13.33,0 24.13,1.4297 32.46,4.3125 15.75,5.4805 23.65,15.7188 23.65,30.6875 0,8.7305 -3.88,15.4922 -11.59,20.3011 -7.73,4.64 -19.98,8.781 -36.74,12.371 l -28.66,6.301 c -28.15,6.199 -47.52,12.976 -58.03,20.277 -17.86,12.211 -26.76,31.293 -26.76,57.285 0,23.699 8.71,43.379 26.17,59.059 17.45,15.679 43.09,23.531 76.89,23.531 28.22,0 52.31,-7.399 72.25,-22.191 19.91,-14.77 30.38,-36.243 31.33,-64.372 h -53.14 c -0.98,15.918 -8.09,27.243 -21.33,33.946 -8.86,4.429 -19.82,6.652 -32.97,6.652 -14.6,0 -26.26,-2.871 -34.97,-8.617 -8.72,-5.746 -13.05,-13.789 -13.05,-24.082 0,-9.457 4.29,-16.52 12.88,-21.164 5.51,-3.137 17.24,-6.778 35.14,-10.965 L 4393.35,158 c 20.37,-4.789 35.62,-11.18 45.79,-19.199 15.75,-12.449 23.65,-30.481 23.65,-54.0627 0,-24.168 -9.33,-44.2383 -28.03,-60.2266 -18.7,-15.96092 -45.1,-23.960919 -79.21,-23.960919 -34.86,0 -62.25,7.878909 -82.21,23.597619 -19.97,15.7618 -29.95,37.3711 -29.95,64.9024 h 52.79" /><path
         id="path38"
         style="fill:#3263a5;fill-opacity:1;fill-rule:nonzero;stroke:none"
         d="m 4674.47,71.1016 c 12.85,16.1797 19.29,39.1604 19.29,68.9374 0,29.691 -6.44,52.649 -19.29,68.879 -12.88,16.207 -30.26,24.32 -52.17,24.32 -21.9,0 -39.38,-8.066 -52.42,-24.25 -13.05,-16.133 -19.59,-39.117 -19.59,-68.949 0,-29.777 6.54,-52.7577 19.59,-68.9374 13.04,-16.1407 30.52,-24.2305 52.42,-24.2305 21.91,0 39.29,8.0898 52.17,24.2305 z m 34.54,-40.2227 C 4689.02,10.2891 4660.13,0 4622.3,0 c -37.82,0 -66.74,10.2891 -86.71,30.8789 -26.83,25.2617 -40.21,61.6406 -40.21,109.1601 0,48.508 13.38,84.871 40.21,109.168 19.97,20.59 48.89,30.883 86.71,30.883 37.83,0 66.72,-10.293 86.71,-30.883 26.69,-24.297 40.05,-60.66 40.05,-109.168 0,-47.5195 -13.36,-83.8984 -40.05,-109.1601" /><path
         id="path40"
         style="fill:#3263a5;fill-opacity:1;fill-rule:nonzero;stroke:none"
         d="m 4794.93,272.023 h 55.3 V 54.9609 h 132.14 V 7.37109 H 4794.93 V 272.023" /><path
         id="path42"
         style="fill:#3263a5;fill-opacity:1;fill-rule:nonzero;stroke:none"
         d="m 5023.19,272.023 h 56.21 V 109.469 c 0,-18.1682 2.13,-31.4495 6.44,-39.8088 6.66,-14.8399 21.21,-22.2618 43.64,-22.2618 22.31,0 36.8,7.4219 43.48,22.2618 4.28,8.3593 6.44,21.6406 6.44,39.8088 v 162.554 h 56.18 V 109.352 c 0,-28.1215 -4.36,-50.0317 -13.07,-65.7114 -16.25,-28.7304 -47.26,-43.089819 -93.03,-43.089819 -45.77,0 -76.84,14.359419 -93.19,43.089819 -8.74,15.6797 -13.1,37.5899 -13.1,65.7114 v 162.671" /><path
         id="path44"
         style="fill:#3263a5;fill-opacity:1;fill-rule:nonzero;stroke:none"
         d="m 5484.69,272.023 v -46.851 h -79.16 V 7.37109 h -55.66 V 225.172 h -79.53 v 46.851 h 214.35" /><path
         id="path46"
         style="fill:#3263a5;fill-opacity:1;fill-rule:nonzero;stroke:none"
         d="M 5571.16,7.37109 H 5516.2 V 272.023 h 54.96 V 7.37109" /><path
         id="path48"
         style="fill:#3263a5;fill-opacity:1;fill-rule:nonzero;stroke:none"
         d="m 5795.76,71.1016 c 12.86,16.1797 19.3,39.1604 19.3,68.9374 0,29.691 -6.44,52.649 -19.3,68.879 -12.88,16.207 -30.26,24.32 -52.16,24.32 -21.91,0 -39.38,-8.066 -52.43,-24.25 -13.05,-16.133 -19.58,-39.117 -19.58,-68.949 0,-29.777 6.53,-52.7577 19.58,-68.9374 13.05,-16.1407 30.52,-24.2305 52.43,-24.2305 21.9,0 39.28,8.0898 52.16,24.2305 z m 34.55,-40.2227 C 5810.32,10.2891 5781.42,0 5743.6,0 c -37.83,0 -66.74,10.2891 -86.71,30.8789 -26.84,25.2617 -40.22,61.6406 -40.22,109.1601 0,48.508 13.38,84.871 40.22,109.168 19.97,20.59 48.88,30.883 86.71,30.883 37.82,0 66.72,-10.293 86.71,-30.883 26.69,-24.297 40.05,-60.66 40.05,-109.168 0,-47.5195 -13.36,-83.8984 -40.05,-109.1601" /><path
         id="path50"
         style="fill:#3263a5;fill-opacity:1;fill-rule:nonzero;stroke:none"
         d="m 5915.34,272.023 h 57.98 L 6078.37,87.5 v 184.523 h 51.54 V 7.37109 h -55.3 L 5966.88,195.152 V 7.37109 h -51.54 V 272.023" /><path
         id="path52"
         style="fill:#3263a5;fill-opacity:1;fill-rule:nonzero;stroke:none"
         d="m 6225.31,89.0508 c 1.7,-12.0899 5.07,-21.1094 10.07,-27.1016 9.17,-10.8906 24.88,-16.3203 47.12,-16.3203 13.33,0 24.13,1.4297 32.46,4.3125 15.75,5.4805 23.65,15.7188 23.65,30.6875 0,8.7305 -3.88,15.4922 -11.59,20.3011 -7.73,4.64 -19.99,8.781 -36.74,12.371 l -28.66,6.301 c -28.15,6.199 -47.52,12.976 -58.03,20.277 -17.86,12.211 -26.76,31.293 -26.76,57.285 0,23.699 8.71,43.379 26.16,59.059 17.46,15.679 43.1,23.531 76.9,23.531 28.22,0 52.31,-7.399 72.25,-22.191 19.91,-14.77 30.38,-36.243 31.33,-64.372 h -53.14 c -0.98,15.918 -8.09,27.243 -21.33,33.946 -8.86,4.429 -19.82,6.652 -32.97,6.652 -14.6,0 -26.26,-2.871 -34.97,-8.617 -8.72,-5.746 -13.05,-13.789 -13.05,-24.082 0,-9.457 4.29,-16.52 12.88,-21.164 5.51,-3.137 17.24,-6.778 35.14,-10.965 L 6322.48,158 c 20.37,-4.789 35.62,-11.18 45.79,-19.199 15.75,-12.449 23.65,-30.481 23.65,-54.0627 0,-24.168 -9.33,-44.2383 -28.03,-60.2266 -18.7,-15.96092 -45.1,-23.960919 -79.21,-23.960919 -34.86,0 -62.25,7.878909 -82.21,23.597619 -19.97,15.7618 -29.95,37.3711 -29.95,64.9024 h 52.79" /><path
         id="path54"
         style="fill:#f25c19;fill-opacity:1;fill-rule:nonzero;stroke:none"
         d="m 3657.86,384.422 -108.85,437.133 h -1.82 l -107,-437.133 h -143 l -170.05,642.208 h 141.23 l 101.69,-437.126 h 1.79 l 111.5,437.126 h 132.23 l 109.78,-442.513 h 1.78 l 105.2,442.513 h 138.52 l -172.7,-642.208 h -140.3" /><path
         id="path56"
         style="fill:#f25c19;fill-opacity:1;fill-rule:nonzero;stroke:none"
         d="m 4226.91,740.652 c -15.31,16.7 -38.53,25.11 -69.71,25.11 -20.45,0 -37.34,-3.403 -50.8,-10.324 -13.49,-6.848 -24.31,-15.399 -32.41,-25.579 -8.06,-10.23 -13.75,-21.07 -17.1,-32.386 -3.29,-11.481 -5.22,-21.684 -5.82,-30.637 h 207.78 c -6.05,32.387 -16.68,56.906 -31.94,73.816 z M 4082.56,495.965 c 19.16,-18.543 46.77,-27.899 82.79,-27.899 25.75,0 47.88,6.426 66.57,19.418 18.49,12.825 29.9,26.454 34.13,40.793 h 112.36 c -17.9,-55.675 -45.54,-95.574 -82.72,-119.574 -37.18,-23.879 -82.13,-35.879 -134.94,-35.879 -36.54,0 -69.54,5.836 -98.9,17.457 -29.39,11.668 -54.29,28.414 -74.65,49.887 -20.4,21.613 -36.11,47.359 -47.24,77.336 -11.12,30.047 -16.58,63.023 -16.58,98.926 0,34.84 5.64,67.156 17.03,97.199 11.39,29.976 27.61,55.863 48.57,77.785 20.99,21.941 46.01,39.141 75.13,51.731 29.01,12.636 61.25,18.945 96.64,18.945 39.63,0 74.07,-7.727 103.48,-23.035 29.32,-15.211 53.5,-35.856 72.4,-61.578 18.82,-25.77 32.52,-55.176 40.89,-88.176 8.41,-32.879 11.41,-67.414 9.04,-103.367 h -335.49 c 1.82,-41.43 12.33,-71.407 31.49,-89.969" /><path
         id="path58"
         style="fill:#f25c19;fill-opacity:1;fill-rule:nonzero;stroke:none"
         d="m 4712.72,606.629 c -8.15,-2.602 -16.82,-4.938 -26.12,-6.688 -9.38,-1.769 -19.09,-3.378 -29.29,-4.511 -10.14,-1.184 -20.41,-2.692 -30.57,-4.489 -9.57,-1.793 -19.01,-4.156 -28.25,-7.179 -9.35,-3.024 -17.5,-7.063 -24.37,-12.164 -6.9,-5.032 -12.45,-11.575 -16.61,-19.371 -4.23,-7.793 -6.31,-17.645 -6.31,-29.641 0,-11.363 2.08,-21.027 6.31,-28.891 4.16,-7.656 9.85,-13.89 17.13,-18.281 7.17,-4.488 15.51,-7.68 25.08,-9.473 9.64,-1.82 19.49,-2.671 29.74,-2.671 25.18,0 44.57,4.207 58.41,12.519 13.85,8.434 24.07,18.496 30.62,30.164 6.56,11.695 10.65,23.504 12.14,35.504 1.51,12.07 2.22,21.66 2.22,28.77 v 47.691 c -5.41,-4.797 -12.1,-8.504 -20.13,-11.289 z m -252.34,180.344 c 13.2,19.82 29.97,35.742 50.29,47.668 20.5,11.972 43.34,20.574 68.83,25.699 25.53,5.055 51.21,7.652 76.96,7.652 23.36,0 47,-1.652 70.98,-4.961 24.02,-3.281 45.87,-9.801 65.74,-19.343 19.72,-9.637 35.95,-22.938 48.51,-39.993 12.59,-17.172 18.9,-39.754 18.9,-67.933 V 493.695 c 0,-20.953 1.23,-41.007 3.59,-60.14 2.48,-19.274 6.61,-33.614 12.64,-43.227 H 4747.3 c -2.48,7.277 -4.41,14.598 -5.9,22.063 -1.44,7.535 -2.53,15.117 -3.05,22.984 -20.48,-21.094 -44.45,-35.691 -72.02,-44.125 -27.61,-8.387 -55.74,-12.59 -84.52,-12.59 -22.22,0 -42.89,2.668 -62.12,8.172 -19.18,5.387 -35.95,13.82 -50.34,25.184 -14.36,11.359 -25.58,25.746 -33.7,43.152 -8.1,17.387 -12.12,38.008 -12.12,62.031 0,26.406 4.61,48.137 13.91,65.242 9.24,17.051 21.31,30.68 36,40.864 14.6,10.179 31.42,17.808 50.34,22.91 18.87,5.055 37.89,9.14 57.09,12.187 19.11,3 38.08,5.34 56.64,7.203 18.66,1.75 35.13,4.493 49.51,8.083 14.36,3.66 25.75,8.855 34.23,15.73 8.34,6.945 12.16,16.937 11.6,30.141 0,13.793 -2.22,24.754 -6.71,32.808 -4.46,8.153 -10.51,14.41 -18.02,18.875 -7.51,4.512 -16.16,7.531 -26.11,9.024 -9.84,1.488 -20.5,2.265 -31.91,2.265 -25.11,0 -44.93,-5.457 -59.31,-16.226 -14.41,-10.797 -22.84,-28.793 -25.2,-53.903 h -127.72 c 1.77,29.903 9.33,54.825 22.51,74.571" /><path
         id="path60"
         style="fill:#f25c19;fill-opacity:1;fill-rule:nonzero;stroke:none"
         d="m 5197.07,849.426 v -85.414 h -93.59 V 533.734 c 0,-21.617 3.67,-35.953 10.87,-43.086 7.21,-7.277 21.57,-10.89 43.16,-10.89 7.15,0 14.07,0.305 20.69,0.969 6.61,0.589 12.92,1.418 18.87,2.644 v -98.949 c -10.79,-1.817 -22.77,-2.973 -36,-3.563 -13.2,-0.57 -26.12,-0.898 -38.62,-0.898 -19.84,0 -38.52,1.367 -56.22,4.086 -17.73,2.715 -33.28,7.914 -46.81,15.707 -13.49,7.769 -24.07,18.941 -31.91,33.351 -7.8,14.34 -11.7,33.211 -11.7,56.575 v 274.332 h -77.31 v 85.414 h 77.31 V 988.84 h 127.67 V 849.426 h 93.59" /><path
         id="path62"
         style="fill:#f25c19;fill-opacity:1;fill-rule:nonzero;stroke:none"
         d="M 5393.03,1026.63 V 784.754 h 2.69 c 16.18,26.926 36.83,46.578 62.01,58.84 25.23,12.258 49.77,18.496 73.74,18.496 34.18,0 62.29,-4.75 84.14,-13.985 21.78,-9.355 39.09,-22.203 51.68,-38.644 12.66,-16.535 21.5,-36.637 26.51,-60.352 5.12,-23.644 7.63,-49.886 7.63,-78.636 V 384.422 H 5573.8 v 262.644 c 0,38.407 -6,67.012 -17.97,85.883 -12,18.899 -33.36,28.301 -63.85,28.301 -34.84,0 -60.02,-10.32 -75.52,-31.016 -15.63,-20.621 -23.43,-54.707 -23.43,-102.136 V 384.422 h -121.72 v 642.208 h 121.72" /><path
         id="path64"
         style="fill:#f25c19;fill-opacity:1;fill-rule:nonzero;stroke:none"
         d="m 6048.44,740.652 c -15.3,16.7 -38.48,25.11 -69.75,25.11 -20.31,0 -37.32,-3.403 -50.74,-10.324 -13.51,-6.848 -24.33,-15.399 -32.45,-25.579 -8.04,-10.23 -13.82,-21.07 -17.06,-32.386 -3.3,-11.481 -5.26,-21.684 -5.9,-30.637 h 207.89 c -6.05,32.387 -16.68,56.906 -31.99,73.816 z M 5904.07,495.965 c 19.13,-18.543 46.77,-27.899 82.72,-27.899 25.89,0 48.02,6.426 66.52,19.418 18.61,12.825 30.05,26.454 34.18,40.793 h 112.53 c -18.05,-55.675 -45.57,-95.574 -82.79,-119.574 -37.18,-23.879 -82.16,-35.879 -134.9,-35.879 -36.54,0 -69.64,5.836 -98.9,17.457 -29.46,11.668 -54.38,28.414 -74.67,49.887 -20.39,21.613 -36.14,47.359 -47.24,77.336 -11.17,30.047 -16.68,63.023 -16.68,98.926 0,34.84 5.72,67.156 17.06,97.199 11.43,29.976 27.66,55.863 48.68,77.785 20.95,21.941 45.92,39.141 75.11,51.731 29.08,12.636 61.28,18.945 96.64,18.945 39.52,0 74.02,-7.727 103.41,-23.035 29.41,-15.211 53.48,-35.856 72.35,-61.578 18.94,-25.77 32.64,-55.176 40.94,-88.176 8.43,-32.879 11.43,-67.414 8.95,-103.367 h -335.44 c 1.81,-41.43 12.26,-71.407 31.53,-89.969" /><path
         id="path66"
         style="fill:#f25c19;fill-opacity:1;fill-rule:nonzero;stroke:none"
         d="m 6373.63,849.426 v -86.379 h 1.82 c 6.05,14.43 14.08,27.801 24.4,40.058 10.06,12.258 21.73,22.797 34.98,31.465 13.23,8.739 27.31,15.45 42.31,20.243 14.9,4.792 30.54,7.277 46.7,7.277 8.45,0 17.67,-1.563 27.92,-4.535 V 738.809 c -6.05,1.23 -13.25,2.199 -21.54,3.144 -8.51,0.945 -16.56,1.32 -24.28,1.32 -23.41,0 -43.28,-3.898 -59.44,-11.714 -16.22,-7.817 -29.26,-18.45 -39.11,-31.891 -9.88,-13.461 -16.87,-29.195 -21.17,-47.215 -4.2,-17.976 -6.28,-37.558 -6.28,-58.465 V 384.422 h -127.7 v 465.004 h 121.39" /><path
         id="path68"
         style="fill:#f25c19;fill-opacity:1;fill-rule:nonzero;stroke:none"
         d="m 1922.3,771.949 c -20.5,0 -37.6,-4.652 -51.3,-13.863 -13.87,-9.356 -25.16,-21.356 -33.66,-36.094 -8.95,-14.715 -15,-30.847 -18.69,-48.637 -3.56,-17.667 -5.26,-35.312 -5.26,-52.675 0,-16.84 1.7,-33.895 5.26,-51.422 3.69,-17.289 9.59,-33.067 17.6,-47.195 8.08,-14.079 19.06,-25.7 32.88,-34.649 13.91,-9.168 30.62,-13.562 50.58,-13.562 30.56,0 53.94,8.48 70.48,25.675 16.63,17.153 26.83,40.039 31.18,68.856 h 123.39 c -8.47,-61.836 -32.45,-108.867 -72.08,-141.395 -39.67,-32.359 -90.36,-48.66 -152.27,-48.66 -34.74,0 -66.63,5.906 -95.8,17.598 -29.2,11.668 -53.91,28.015 -74.27,49.039 -20.6,21.023 -36.49,46.133 -47.78,75.281 -11.43,29.125 -17.22,61.082 -17.22,95.926 0,36.043 5.27,69.394 15.75,100.433 10.49,30.848 26.13,57.731 46.44,80.172 20.34,22.485 45.35,40.059 74.81,52.719 29.34,12.594 62.95,18.828 100.91,18.828 27.54,0 54.11,-3.566 79.58,-10.769 25.46,-7.207 48.47,-18.117 68.55,-32.907 20.05,-14.738 36.39,-33.07 49.01,-54.894 12.76,-21.969 19.89,-47.883 21.64,-77.926 h -125.12 c -8.49,53.406 -40.02,80.121 -94.61,80.121" /><path
         id="path70"
         style="fill:#f25c19;fill-opacity:1;fill-rule:nonzero;stroke:none"
         d="m 2428.1,771.949 c -20.36,0 -37.56,-4.652 -51.19,-13.863 -13.91,-9.356 -25.22,-21.356 -33.8,-36.094 -8.76,-14.715 -14.86,-30.847 -18.56,-48.637 -3.64,-17.667 -5.34,-35.312 -5.34,-52.675 0,-16.84 1.7,-33.895 5.34,-51.422 3.7,-17.289 9.54,-33.067 17.59,-47.195 8.08,-14.079 19.14,-25.7 32.88,-34.649 13.89,-9.168 30.57,-13.562 50.55,-13.562 30.57,0 54,8.48 70.51,25.675 16.51,17.153 26.88,40.039 31.23,68.856 h 123.32 c -8.48,-61.836 -32.5,-108.867 -72.11,-141.395 -39.52,-32.359 -90.33,-48.66 -152.1,-48.66 -34.98,0 -66.77,5.906 -95.9,17.598 -29.17,11.668 -53.85,28.015 -74.36,49.039 -20.5,21.023 -36.33,46.133 -47.69,75.281 -11.52,29.125 -17.12,61.082 -17.12,95.926 0,36.043 5.24,69.394 15.7,100.433 10.52,30.848 26.01,57.731 46.42,80.172 20.34,22.485 45.33,40.059 74.78,52.719 29.27,12.594 63,18.828 100.87,18.828 27.54,0 54.21,-3.566 79.65,-10.769 25.48,-7.207 48.32,-18.117 68.45,-32.907 20.05,-14.738 36.42,-33.07 49.11,-54.894 12.66,-21.969 19.79,-47.883 21.71,-77.926 h -125.27 c -8.45,53.406 -40.06,80.121 -94.67,80.121" /><path
         id="path72"
         style="fill:#f25c19;fill-opacity:1;fill-rule:nonzero;stroke:none"
         d="m 1292.83,632.656 86.66,235.598 84.87,-235.598 z m 159.58,393.904 h -144.87 l -242.8,-642.138 h 136.65 l 52.89,143.594 h 247.85 l 51.76,-143.594 h 138.63 l -240.11,642.138" /><path
         id="path74"
         style="fill:#f25c19;fill-opacity:1;fill-rule:nonzero;stroke:none"
         d="M 2992.36,855.781 V 611.66 c 0,-47.433 -7.35,-81.496 -22.25,-102.183 -14.88,-20.766 -39.14,-31.231 -72.31,-31.231 -29.24,0 -49.65,9.613 -61.1,28.442 -11.55,18.941 -17.27,47.546 -17.27,86.05 V 855.781 H 2697.26 V 569.258 c 0,-28.77 2.53,-55.059 7.39,-78.684 4.8,-23.664 13.23,-43.863 25.28,-60.398 12.09,-16.535 28.51,-29.336 49.51,-38.289 20.97,-9.024 47.69,-13.559 80.48,-13.559 25.81,0 51.04,6.051 75.79,18.051 23.04,11.289 42.07,29.641 57.29,54.301 v -60.657 h 121.62 v 0 465.711 0.047 h -122.26" /><path
         id="path76"
         style="fill:#3263a5;fill-opacity:1;fill-rule:nonzero;stroke:none"
         d="m 6448.48,38.6016 c 1.83,0 3.33,0.2578 4.5,0.7578 1.18,0.5117 1.76,1.7304 1.76,3.6719 0,0.8593 -0.21,1.5468 -0.61,2.0585 -0.41,0.5 -0.93,0.8985 -1.57,1.1797 -0.63,0.2891 -1.35,0.4688 -2.13,0.5703 -0.79,0.1094 -1.54,0.1602 -2.25,0.1602 h -5.35 v -8.3984 z m 0.07,13.3593 c 4.03,0 7.12,-0.7109 9.28,-2.1328 2.16,-1.4375 3.24,-3.8789 3.24,-7.3281 0,-1.4883 -0.21,-2.7383 -0.65,-3.7891 -0.43,-1.039 -1.03,-1.8906 -1.79,-2.5625 -0.76,-0.6484 -1.65,-1.1679 -2.67,-1.5195 -1.02,-0.3476 -2.11,-0.5898 -3.29,-0.6875 l 8.56,-13.9726 h -6.64 l -7.79,13.6601 h -3.97 V 19.9688 h -6.34 v 31.9921 z m -20.53,-25.039 c 1.11,-2.75 2.64,-5.1328 4.58,-7.1406 1.93,-2.0196 4.21,-3.5704 6.83,-4.6915 2.62,-1.1289 5.43,-1.6796 8.44,-1.6796 2.95,0 5.74,0.5507 8.36,1.6796 2.62,1.1211 4.9,2.6719 6.83,4.6915 1.94,2.0078 3.47,4.3906 4.62,7.1406 1.14,2.7383 1.72,5.75 1.72,9.0078 0,3.2617 -0.58,6.2422 -1.72,8.9687 -1.15,2.7227 -2.68,5.0704 -4.62,7.0625 -1.93,1.9883 -4.21,3.5274 -6.83,4.6485 -2.62,1.1289 -5.41,1.6797 -8.36,1.6797 -3.01,0 -5.82,-0.5508 -8.44,-1.6797 -2.62,-1.1211 -4.9,-2.6602 -6.83,-4.6485 -1.94,-1.9921 -3.47,-4.3398 -4.58,-7.0625 -1.12,-2.7265 -1.68,-5.707 -1.68,-8.9687 0,-3.2578 0.56,-6.2695 1.68,-9.0078 z m -7.06,20.7578 c 1.6,3.5195 3.75,6.5 6.45,8.9687 2.69,2.4727 5.81,4.3829 9.35,5.7305 3.54,1.3399 7.24,2.0195 11.11,2.0195 3.87,0 7.57,-0.6796 11.1,-2.0195 3.54,-1.3476 6.66,-3.2578 9.36,-5.7305 2.7,-2.4687 4.85,-5.4492 6.45,-8.9687 1.6,-3.5078 2.4,-7.4297 2.4,-11.75 0,-4.3789 -0.8,-8.3281 -2.4,-11.8399 -1.6,-3.5117 -3.75,-6.5117 -6.45,-9 -2.7,-2.5 -5.82,-4.4101 -9.36,-5.73042 -3.53,-1.32032 -7.23,-1.98829 -11.1,-1.98829 -3.87,0 -7.57,0.66797 -11.11,1.98829 -3.54,1.32032 -6.66,3.23042 -9.35,5.73042 -2.7,2.4883 -4.85,5.4883 -6.45,9 -1.61,3.5118 -2.41,7.461 -2.41,11.8399 0,4.3203 0.8,8.2422 2.41,11.75" /></g></g></svg>