<?xml version="1.0" encoding="utf-8"?>
<!-- Generator: Adobe Illustrator 21.1.0, SVG Export Plug-In . SVG Version: 6.00 Build 0)  -->
<svg version="1.1" id="Layer_1" xmlns="http://www.w3.org/2000/svg" xmlns:xlink="http://www.w3.org/1999/xlink" x="0px" y="0px"
	 viewBox="0 0 288 72" style="enable-background:new 0 0 288 72;" xml:space="preserve">
<style type="text/css">
	.st0{clip-path:url(#SVGID_4_);}
	.st1{fill:#EB7E32;}
	.st2{clip-path:url(#SVGID_8_);}
</style>
<g>
	<g>
		<defs>
			<rect id="SVGID_1_" width="288" height="72"/>
		</defs>
		<clipPath id="SVGID_2_">
			<use xlink:href="#SVGID_1_"  style="overflow:visible;"/>
		</clipPath>
	</g>
	<g>
		<defs>
			<rect id="SVGID_3_" width="288" height="72"/>
		</defs>
		<clipPath id="SVGID_4_">
			<use xlink:href="#SVGID_3_"  style="overflow:visible;"/>
		</clipPath>
		<g class="st0">
			<path class="st1" d="M43.4,35c-1.1-4.8-5.2-9.1-10.9-9.1C24.7,25.9,21,32.8,21,42c0,8.4,3.2,16,11.4,16c5.1,0,9.7-4,11.1-9.7
				c0.3-1,0.5-2.1,0.5-3.3v-6.4h-0.1C43.9,37.7,43.6,36,43.4,35z"/>
			<path class="st1" d="M76.7,25.9c-9.5,0-12.4,7.2-13,12.4H88C88.1,33.5,85.2,25.9,76.7,25.9z"/>
		</g>
	</g>
	<g>
		<defs>
			<rect id="SVGID_5_" width="288" height="72"/>
		</defs>
		<clipPath id="SVGID_6_">
			<use xlink:href="#SVGID_5_"  style="overflow:visible;"/>
		</clipPath>
	</g>
	<g>
		<defs>
			<rect id="SVGID_7_" width="288" height="72"/>
		</defs>
		<clipPath id="SVGID_8_">
			<use xlink:href="#SVGID_7_"  style="overflow:visible;"/>
		</clipPath>
		<g class="st2">
			<path d="M171.9,7.3v55.5h-7.6V7.3H171.9z"/>
			<path d="M229.1,58.5c-2.5,1.7-10.4,5.3-17.2,5.3c-15.8,0-27.5-9.8-27.5-28.1c0-17.5,9.6-29.4,27-29.4c9.5,0,15.8,4.2,17.7,5.3
				v7.8c-3.3-3.8-10.9-7-16.9-7c-13.1,0-19.7,8.4-19.7,23.1c0,13.7,6,22.2,19.7,22.2c8.3,0,14.1-4.2,16.9-7V58.5z"/>
			<path d="M253.8,13.4h-19.7V7.3h46.8v6.1h-19.7v49.1h-7.3L253.8,13.4L253.8,13.4z"/>
		</g>
	</g>
</g>
<path class="st1" d="M0,0v72l143.8-0.2L155.5,35L144.4,0.2L0,0z M50.9,62.6h-6.7v-6.4H44c-2.3,4.6-6.3,7.2-13,7.2
	c-10.1,0-17-8.5-17-21.2c0-14,7-22.1,17.2-22.1c6.4,0,11,3.7,12.9,7.1h0.2V5.1h6.5v0.1l0.1,46.5C50.9,55.4,50.9,62.6,50.9,62.6z
	 M94.7,43.5H63.6c0,9,5.7,14.5,14.9,14.5c5.4,0,11.8-2.7,14.6-3.9v6.5c-2.7,1.2-8.5,2.8-15.1,2.8c-14.3,0-21.6-8.4-21.6-21
	c0-12.6,7.2-22.2,20.1-22.2c14.1,0,18.2,11.7,18.2,19.3C94.7,41,94.8,42.7,94.7,43.5z M120.2,62.5H111L95.1,20.9h7.4l8.8,23.4
	c1.4,3.8,3.1,8.5,4.2,11.5h0.3c1.2-3.6,2.8-7.8,4.2-11.5l8.8-23.4h7.7L120.2,62.5z"/>
</svg>
