<?xml version="1.0" encoding="utf-8"?>
<!-- Generator: Adobe Illustrator 21.1.0, SVG Export Plug-In . SVG Version: 6.00 Build 0)  -->
<svg version="1.1" id="Layer_1" xmlns="http://www.w3.org/2000/svg" xmlns:xlink="http://www.w3.org/1999/xlink" x="0px" y="0px"
	 viewBox="0 0 539.3 278.7" style="enable-background:new 0 0 539.3 278.7;" xml:space="preserve">
<style type="text/css">
	.st0{fill-rule:evenodd;clip-rule:evenodd;fill:#FFFFFF;}
	.st1{fill-rule:evenodd;clip-rule:evenodd;fill:#78797C;}
	.st2{fill:#FE860C;}
	.st3{fill:#FFFFFF;}
	.st4{fill-rule:evenodd;clip-rule:evenodd;fill:#EE4611;}
	.st5{fill-rule:evenodd;clip-rule:evenodd;fill:#FE860C;}
	.st6{fill:#78797C;}
	.st7{fill:none;}
</style>
<rect width="539.3" height="278.7"/>
<path class="st0" d="M227.4,26.2h39.3l0,49.5h19.4v39.3h-58.7V26.2z M266.8,124.9l-0.1,39.4h-39.3v-39.4H266.8z M296,114.9V65.4
	h-19.4V26.2l14.1,0c24.5,0,44.6,19.7,44.6,44.3C335.3,93.1,317.9,112.1,296,114.9z"/>
<polygon class="st1" points="152.3,94.9 152.2,94.9 132.9,114.1 268.7,249.9 307.4,249.9 "/>
<polygon class="st1" points="152.2,94.9 152.3,94.9 190.7,94.8 123.9,27.9 123.9,66.6 "/>
<polygon class="st2" points="152.2,94.9 171.5,114 190.7,94.8 "/>
<polygon class="st3" points="132.8,114.2 113.6,133.5 230,249.9 268.7,249.9 "/>
<polygon class="st2" points="132.8,114.1 152.2,94.9 123.8,66.6 85.1,66.6 "/>
<path class="st4" d="M356.2,123.9"/>
<polygon class="st5" points="385.1,94.9 385.2,94.9 404.5,114.1 268.7,249.9 230,249.9 "/>
<polygon class="st5" points="385.2,94.9 385.1,94.9 346.7,94.8 413.6,27.9 413.6,66.6 "/>
<polygon class="st6" points="385.2,94.9 365.9,114 346.7,94.8 "/>
<polygon class="st6" points="404.6,114.2 423.9,133.5 307.4,249.9 268.7,249.9 "/>
<polygon class="st6" points="404.6,114.1 385.2,94.9 413.7,66.6 452.4,66.6 "/>
<path class="st0" d="M395.9,211.5h-3.4v6.2h-4.2v-20.1h8c4.7,0,7.7,2.7,7.7,6.9C404,209.2,400.3,211.5,395.9,211.5z M430.9,217.7
	h-4.4l-2-4.7h-8.6l-2,4.7h-4.3l8.8-20.2h3.7L430.9,217.7z M420.2,202.9l-2.7,6.4h5.5L420.2,202.9z M452.9,217.7l-4.7-6.7h-3.7v6.7
	h-4.2v-20.1h9c4.6,0,7.6,2.5,7.6,6.5c0,3.2-1.8,5.2-4.4,6.1l5.3,7.5H452.9z M449,201.5h-4.6v5.7h4.6c2.3,0,3.6-1.2,3.6-2.9
	C452.6,202.5,451.4,201.5,449,201.5z M476.5,217.7h-4.2v-16.2h-6.1v-3.9h16.5v3.9h-6.1V217.7z M502.7,217.7h-4.2v-7.9l-8-12.2h4.9
	l5.2,8.2l5.3-8.2h4.8l-8,12.1L502.7,217.7z M396,201.5h-3.6v6.2l3.6,0c2.4,0,3.8-1.3,3.8-3.1C399.8,202.6,398.4,201.5,396,201.5z
	 M26.8,197.3h4.2v16.2h10.2v3.9H26.8V197.3z M69.4,217.4h-4.4l-2-4.7h-8.6l-2,4.7H48l8.8-20.2h3.7L69.4,217.4z M58.7,202.6l-2.7,6.4
	h5.5L58.7,202.6z M93.2,202.6c0,2.2-1,3.4-2.3,4.3c2,0.8,3.3,2.2,3.3,4.8c0,3.8-3.1,5.7-7.5,5.7h-9.3v-20.1h9.1
	C90.5,197.3,93.2,199.3,93.2,202.6z M89.1,203.2c0-1.3-0.9-2.1-3-2.1h-4.5v4.4h4.2C87.9,205.5,89.1,204.7,89.1,203.2z M90.1,211.3
	c0-1.3-1-2.2-3.6-2.2h-5v4.5h5.2C89,213.6,90.1,212.8,90.1,211.3z M112.9,217.7c-6.2,0-10.5-4.7-10.5-10.4s4.4-10.4,10.5-10.4
	c6.2,0,10.5,4.7,10.5,10.4C123.4,213,119,217.7,112.9,217.7z M112.9,200.9c-3.6,0-6.1,2.9-6.1,6.5s2.6,6.5,6.2,6.5
	c3.6,0,6.1-2.9,6.1-6.5S116.5,200.9,112.9,200.9z M144.1,217.4l-4.7-6.7h-3.7v6.7h-4.2v-20.1h9c4.6,0,7.6,2.5,7.6,6.5
	c0,3.2-1.8,5.2-4.4,6.1l5.3,7.5H144.1z M140.3,201.2h-4.6v5.7h4.6c2.3,0,3.6-1.2,3.6-2.9C143.9,202.2,142.7,201.2,140.3,201.2z"/>
<rect x="-36.7" y="-257.3" class="st7" width="612" height="792"/>
</svg>
