<?xml version="1.0" encoding="utf-8"?>
<!-- Generator: Adobe Illustrator 21.1.0, SVG Export Plug-In . SVG Version: 6.00 Build 0)  -->
<svg version="1.1"
	 id="svg5849" inkscape:version="0.91 r13725" sodipodi:docname="Logo-type.svg" xmlns:cc="http://creativecommons.org/ns#" xmlns:dc="http://purl.org/dc/elements/1.1/" xmlns:inkscape="http://www.inkscape.org/namespaces/inkscape" xmlns:rdf="http://www.w3.org/1999/02/22-rdf-syntax-ns#" xmlns:sodipodi="http://sodipodi.sourceforge.net/DTD/sodipodi-0.dtd" xmlns:svg="http://www.w3.org/2000/svg"
	 xmlns="http://www.w3.org/2000/svg" xmlns:xlink="http://www.w3.org/1999/xlink" x="0px" y="0px" viewBox="0 0 169.3 33"
	 style="enable-background:new 0 0 169.3 33;" xml:space="preserve">
<style type="text/css">
	.st0{fill:#53565A;}
	.st1{fill:#FF4438;}
</style>
<sodipodi:namedview  bordercolor="#666666" borderopacity="1.0" fit-margin-bottom="0" fit-margin-left="0" fit-margin-right="0" fit-margin-top="0" id="base" inkscape:bbox-nodes="true" inkscape:current-layer="layer1" inkscape:cx="122.07211" inkscape:cy="46.658715" inkscape:document-units="px" inkscape:guide-bbox="true" inkscape:object-nodes="true" inkscape:object-paths="true" inkscape:pageopacity="0.0" inkscape:pageshadow="2" inkscape:snap-bbox="true" inkscape:snap-page="true" inkscape:snap-smooth-nodes="true" inkscape:window-height="1080" inkscape:window-maximized="0" inkscape:window-width="939" inkscape:window-x="42" inkscape:window-y="0" inkscape:zoom="1.979899" pagecolor="#ffffff" showgrid="false" showguides="true" units="px">
	<sodipodi:guide  id="guide4162" orientation="1,0" position="221.6198,56.803995"></sodipodi:guide>
	<sodipodi:guide  id="guide4164" orientation="1,0" position="28.382735,28.422596"></sodipodi:guide>
	<sodipodi:guide  id="guide4166" orientation="0,1" position="88.478128,28.382796"></sodipodi:guide>
	<sodipodi:guide  id="guide4168" orientation="0,1" position="28.382806,56.804126"></sodipodi:guide>
	<sodipodi:guide  id="guide4172" orientation="0,1" position="250.00267,85.187025"></sodipodi:guide>
	<sodipodi:guide  id="guide4174" orientation="1,0" position="-4.6084271e-05,5.0440519e-05"></sodipodi:guide>
	<sodipodi:guide  id="guide4176" orientation="0,1" position="-4.6084271e-05,5.0440519e-05"></sodipodi:guide>
	<sodipodi:guide  id="guide4178" orientation="1,0" position="250.00262,230.79315"></sodipodi:guide>
</sodipodi:namedview>
<g id="layer1" transform="translate(1557.063,-2282.5718)" inkscape:groupmode="layer" inkscape:label="Layer 1">
	<path id="path4417" inkscape:connector-curvature="0" class="st0" d="M-1532.5,2289.3l-3,10.3h-0.3l-3.1-10.3
		c-0.3-1-0.6-1.3-1.7-1.3h-8.7v22.7h6.4v-13.8h0.3l4.1,12.5c0.3,0.9,0.6,1.3,1.5,1.3h2.3c0.8,0,1.1-0.3,1.5-1.3l4.1-12.5h0.3v13.8
		h6.6V2288h-8.7C-1531.8,2288-1532.2,2288.3-1532.5,2289.3"/>
	<path id="path4419" inkscape:connector-curvature="0" class="st0" d="M-1507.7,2305.7c-1.6,0.8-2.2,0.8-3,0.8h-0.3
		c-0.5,0-0.9-0.1-1.2-0.3c-0.3-0.3-0.3-0.6-0.3-1.2c0-0.5,0-0.9,0.4-1.2c0.3-0.3,0.8-0.4,2.4-0.4h2V2305.7z M-1505.9,2291.9h-7.6
		c-1.8,0-2.7,0.3-3.4,1c-0.8,0.8-1.1,1.8-1.1,5h6.1c0-0.8,0.1-1,0.3-1.2c0.2-0.2,0.5-0.3,1.1-0.3h1.6c0.6,0,0.9,0.1,1.1,0.3
		c0.2,0.2,0.3,0.5,0.3,1.9v1.9c-1.9-0.4-4-0.6-5.6-0.6c-2.1,0-3.4,0.3-4.3,1.1c-0.8,0.8-1.1,2.2-1.1,4.5c0,2.5,0.4,3.5,1,4.2
		c0.7,0.7,1.6,0.9,3.1,0.9h2.2c1.6,0,2.6-0.2,4.7-1.9v1.9h6.6v-12.9c0-2.9-0.3-4-1.1-4.8C-1503,2292.2-1504.3,2291.9-1505.9,2291.9"
		/>
	<path id="path4421" inkscape:connector-curvature="0" class="st0" d="M-1485.2,2291.9l-4.9,7.5h-0.8v-13.2h-6.6v24.5h6.6v-6.7h0.9
		l4.1,6.7h7.5l-6.1-9.5l6.2-9.2H-1485.2z"/>
	<path id="path4423" inkscape:connector-curvature="0" class="st0" d="M-1471.4,2298.7c0.1-1.8,0.3-2.1,0.5-2.2
		c0.2-0.2,0.4-0.2,1.2-0.2h2.9c0.8,0,1.1,0.1,1.2,0.2c0.1,0.1,0.3,0.4,0.4,2.2H-1471.4z M-1459.7,2299.3c-0.1-3.8-0.5-5.4-1.4-6.4
		c-0.7-0.7-1.7-1.1-3.7-1.1h-6.8c-2,0-3,0.3-3.7,1.1c-1.1,1.1-2,3.1-2,8.3c0,5.2,0.9,7.2,2,8.3c0.7,0.7,1.7,1.1,3.7,1.1h6.8
		c2,0,2.9-0.3,3.7-1.1c0.9-0.8,1.3-2.3,1.4-5.3h-5.4c-0.1,1.4-0.3,1.7-0.4,1.8c-0.2,0.2-0.4,0.2-1.2,0.2h-2.9
		c-0.8,0-1.1-0.1-1.2-0.2c-0.2-0.2-0.5-0.6-0.5-3.9h11.7V2299.3z"/>
	<path id="path4425" inkscape:connector-curvature="0" class="st1" d="M-1431.7,2288c-2.4,0-3.6,0.4-4.5,1.3
		c-1.3,1.3-2.5,3.8-2.5,10.1c0,6.3,1.1,8.8,2.5,10.1c0.9,0.9,2.1,1.3,4.5,1.3h7.6c2.4,0,3.6-0.4,4.4-1.3c1.2-1.1,1.7-3.1,1.8-7.8
		h-6.5c-0.1,2.9-0.4,3.3-0.5,3.5c-0.2,0.2-0.5,0.3-1.5,0.3h-2.9c-1,0-1.3-0.1-1.5-0.3c-0.2-0.2-0.6-0.8-0.6-5.8c0-5,0.4-5.6,0.6-5.8
		c0.2-0.2,0.5-0.3,1.5-0.3h2.9c1,0,1.3,0.1,1.5,0.3c0.2,0.2,0.5,0.6,0.5,3.4h6.5c-0.1-4.6-0.6-6.6-1.8-7.7c-0.9-0.9-2.1-1.3-4.4-1.3
		H-1431.7z"/>
	<path id="path4427" inkscape:connector-curvature="0" class="st1" d="M-1415.1,2288v5.3h6.6v17.4h7v-17.4h6.8v-5.3H-1415.1z"/>
	<path id="path4429" inkscape:connector-curvature="0" class="st1" d="M-1456,2293.3h3.3v12.1h-3.3v5.3h13.6v-5.3h-3.3v-12.1h3.3
		v-5.3h-13.6V2293.3z"/>
</g>
</svg>
