<?xml version="1.0" encoding="utf-8"?>
<!-- Generator: Adobe Illustrator 21.1.0, SVG Export Plug-In . SVG Version: 6.00 Build 0)  -->
<svg version="1.1" id="Layer_1" xmlns="http://www.w3.org/2000/svg" xmlns:xlink="http://www.w3.org/1999/xlink" x="0px" y="0px"
	 viewBox="0 0 489.9 190.1" style="enable-background:new 0 0 489.9 190.1;" xml:space="preserve">
<g>
	<path d="M94.3,6.3C45.1,6.3,5,46.3,5,95.6c0,49.2,40.1,89.3,89.3,89.3c49.2,0,89.3-40,89.3-89.3C183.6,46.3,143.5,6.3,94.3,6.3z
		 M173.2,99.8h-41.1c-0.3,2.3-0.7,4.6-1.4,6.8h26.1c2.3,0,4.2,1.9,4.2,4.2c0,2.3-1.9,4.2-4.2,4.2h-29.9c-3.2,5.4-7.8,10-13.2,13.2
		v30.4c0,2.3-1.9,4.2-4.2,4.2c-2.3,0-4.2-1.9-4.2-4.2V132c-2.2,0.7-4.4,1.1-6.8,1.4v41.1c0,2.3-1.9,4.2-4.2,4.2
		c-2.3,0-4.2-1.9-4.2-4.2v-41.1c-2.5-0.3-5-0.8-7.3-1.5v26.9c0,2.3-1.9,4.2-4.2,4.2c-2.3,0-4.2-1.9-4.2-4.2v-30.8
		c-5.2-3.2-9.5-7.6-12.7-12.9H31.2c-2.3,0-4.2-1.9-4.2-4.2c0-2.3,1.9-4.2,4.2-4.2h26.7c-0.7-2.2-1.1-4.4-1.4-6.8H15.4
		c-2.3,0-4.2-1.9-4.2-4.2c0-2.3,1.9-4.2,4.2-4.2h41.1c0.3-2.3,0.7-4.6,1.4-6.7H31.2c-2.3,0-4.2-1.9-4.2-4.2c0-2.3,1.9-4.2,4.2-4.2
		h30.4c3.1-5.2,7.5-9.7,12.7-12.9V32.5c0-2.3,1.9-4.2,4.2-4.2c2.3,0,4.2,1.9,4.2,4.2v26.9c2.4-0.8,4.8-1.3,7.3-1.6V16.7
		c0-2.3,1.9-4.2,4.2-4.2c2.3,0,4.2,1.9,4.2,4.2v41.1c2.3,0.3,4.6,0.7,6.8,1.4V32.5c0-2.3,1.9-4.2,4.2-4.2c2.3,0,4.2,1.9,4.2,4.2
		v30.4c5.4,3.2,10,7.8,13.2,13.2h29.9c2.3,0,4.2,1.9,4.2,4.2c0,2.3-1.9,4.2-4.2,4.2h-26.1c0.7,2.2,1.1,4.4,1.4,6.7h41.1
		c2.3,0,4.2,1.9,4.2,4.2C177.4,97.9,175.5,99.8,173.2,99.8z"/>
	<path d="M94.3,66C78,66,64.7,79.2,64.7,95.6c0,13.5,9.1,24.9,21.5,28.4l3.5-17.5c-4.3-1.8-7.2-6-7.2-10.9c0-6.5,5.3-11.8,11.8-11.8
		c6.5,0,11.8,5.3,11.8,11.8c0,4.8-2.9,8.9-7,10.8l3.3,17.7c12.4-3.5,21.5-14.9,21.5-28.4C123.9,79.2,110.6,66,94.3,66z"/>
</g>
<g>
	<path d="M237.9,85.5c-13.8,0-23.2-9.9-23.2-23.3c0-13.4,9.3-23.3,23.2-23.3c13.8,0,23.1,10,23.1,23.3
		C261,75.6,251.7,85.5,237.9,85.5z M237.9,46.1c-8.9,0-14.5,6.1-14.5,16.1c0,10,5.6,16.1,14.5,16.1c8.9,0,14.4-6.1,14.4-16.1
		C252.3,52.2,246.8,46.1,237.9,46.1z"/>
	<path d="M276.5,68.9V85H268V39.4h14.9c12.2,0,17.7,6,17.7,14.6c0,8.8-5.9,15-17.7,15H276.5z M276.5,62.3h6.4c6.2,0,9.2-3.2,9.2-8.4
		c0-4.9-3-8-9.2-8h-6.4V62.3z"/>
	<path d="M336,39.4v6.8h-20.3v12.7h16v6.5h-16v12.9H336V85h-28.8V39.4H336z"/>
	<path d="M350.6,40.7l24,30.5c-0.2-1.5-0.2-2.9-0.2-4.1V39.4h7.5V85h-4.4c-1.4,0-2.1-0.3-3-1.5l-23.9-30.4c0.1,1.4,0.2,2.7,0.2,3.8
		v28h-7.5V39.4h4.4C349.3,39.4,349.7,39.5,350.6,40.7z"/>
	<path d="M213,99.5h7.1c1.5,0,2.5,0.8,2.8,1.9l7.8,27.3c0.4,1.4,0.7,2.9,1,4.7c0.3-1.8,0.7-3.3,1.2-4.7l9-27.3
		c0.3-1,1.4-1.9,2.8-1.9h2.5c1.5,0,2.5,0.8,2.8,1.9l8.9,27.3c0.5,1.4,0.9,2.8,1.2,4.5c0.3-1.6,0.6-3.2,0.9-4.5l7.8-27.3
		c0.3-1,1.4-1.9,2.8-1.9h6.7l-14.2,45.7h-7.7l-10-31.2c-0.3-0.8-0.5-1.7-0.8-2.8c-0.2,1-0.5,2-0.8,2.8l-10.1,31.2h-7.7L213,99.5z"/>
	<path d="M292.9,145.1h-8.5V99.5h8.5V145.1z"/>
	<path d="M335.7,134.9l3.3,3.6c-3.7,4.6-9,7.1-16.6,7.1c-13.5,0-22-9.7-22-23.3c0-13.7,9.5-23.3,23.4-23.3c6.8,0,11.8,2.4,15.4,5.9
		l-2.8,3.9c-0.4,0.5-0.8,0.9-1.7,0.9c-1.9,0-3.5-3.6-10.9-3.6c-8.6,0-14.7,6.2-14.7,16.1c0,10.2,6.2,16.1,13.9,16.1
		c4.6,0,7.3-0.9,10.1-3.4c0.4-0.4,0.9-0.6,1.4-0.6C335,134.4,335.4,134.6,335.7,134.9z"/>
	<path d="M384,145.1h-8.6v-19.9H354v19.9h-8.6V99.5h8.6v19.6h21.4V99.5h8.6V145.1z"/>
	<path d="M402.8,145.1h-8.5V99.5h8.5V145.1z"/>
	<path d="M445.2,99.5v7h-13.7v38.7H423v-38.7h-13.8v-7H445.2z"/>
	<path d="M486.1,145.1h-6.6c-1.5,0-2.4-0.8-2.8-1.9l-3.4-9.3h-18.9l-3.4,9.3c-0.3,1-1.4,1.9-2.8,1.9h-6.6l17.9-45.7h8.7L486.1,145.1
		z M456.5,127.9h14.6l-5.6-15.2c-0.5-1.3-1.1-3.2-1.7-5.4c-0.6,2.2-1.2,4-1.7,5.4L456.5,127.9z"/>
</g>
</svg>
