<?xml version="1.0" encoding="UTF-8" standalone="no"?>
<!-- Created with Inkscape (http://www.inkscape.org/) -->

<svg
   width="238.66531mm"
   height="41.800461mm"
   viewBox="0 0 238.66531 41.800461"
   version="1.1"
   id="svg1"
   xml:space="preserve"
   inkscape:version="1.3 (0e150ed, 2023-07-21)"
   sodipodi:docname="Quilibrium-full-logo.svg"
   xmlns:inkscape="http://www.inkscape.org/namespaces/inkscape"
   xmlns:sodipodi="http://sodipodi.sourceforge.net/DTD/sodipodi-0.dtd"
   xmlns="http://www.w3.org/2000/svg"
   xmlns:svg="http://www.w3.org/2000/svg"><sodipodi:namedview
     id="namedview1"
     pagecolor="#ffffff"
     bordercolor="#000000"
     borderopacity="0.25"
     inkscape:showpageshadow="2"
     inkscape:pageopacity="0.0"
     inkscape:pagecheckerboard="0"
     inkscape:deskcolor="#d1d1d1"
     inkscape:document-units="mm"
     inkscape:zoom="0.71845515"
     inkscape:cx="438.44073"
     inkscape:cy="244.27412"
     inkscape:window-width="1512"
     inkscape:window-height="916"
     inkscape:window-x="0"
     inkscape:window-y="38"
     inkscape:window-maximized="1"
     inkscape:current-layer="svg1" /><defs
     id="defs1"><filter
       style="color-interpolation-filters:sRGB"
       inkscape:label="Invert"
       id="filter1"
       x="0"
       y="0"
       width="1"
       height="1"><feColorMatrix
         values="1 0 0 0 0 0 1 0 0 0 0 0 1 0 0 -0.21 -0.72 -0.07 2 0 "
         result="fbSourceGraphic"
         id="feColorMatrix1" /><feColorMatrix
         result="fbSourceGraphicAlpha"
         in="fbSourceGraphic"
         values="0 0 0 -1 0 0 0 0 -1 0 0 0 0 -1 0 0 0 0 1 0"
         id="feColorMatrix2" /><feColorMatrix
         id="feColorMatrix3"
         values="1 0 0 0 0 0 1 0 0 0 0 0 1 0 0 -0.21 -0.72 -0.07 2 0 "
         result="color2"
         in="fbSourceGraphic" /></filter></defs><path
     style="fill:#000000"
     d="m 133.29912,35.36675 c 0,-3.53853 0.12958,-7.13462 0.28795,-7.99131 1.1261,-6.09165 7.28959,-10.44759 13.3597,-9.44174 5.36086,0.88833 9.29718,4.9349 10.02604,10.30686 l 0.18847,1.38906 h -2.90885 -2.90886 l -0.33012,-1.37611 c -0.473,-1.97169 -2.20512,-3.77636 -4.17386,-4.34869 -1.23577,-0.35925 -1.6835,-0.37458 -2.91175,-0.0997 -1.96524,0.4398 -3.84976,2.16503 -4.40416,4.03191 -0.21375,0.71978 -0.37793,1.3878 -0.36485,1.4845 0.0131,0.0967 0.01,2.94401 -0.008,6.32737 l -0.0313,6.15156 h -2.91042 -2.91042 z M 17.01475,41.14352 C 9.2289585,39.69494 2.8916792,33.97495 0.74066729,26.45462 -0.03222221,23.75246 -0.23592891,19.27571 0.29960239,16.76159 2.4246249,6.78539 10.690733,0 20.718917,0 c 8.011293,0 15.014131,4.34664 18.536669,11.50566 1.476375,3.00051 1.965083,4.86408 2.153778,8.2129 0.110347,1.95837 0.03069,3.24494 -0.303071,4.8948 -0.434108,2.14592 -1.866842,6.07459 -2.215322,6.07459 -0.09191,0 -0.960161,-0.78697 -1.92945,-1.74884 l -1.762343,-1.74883 0.536937,-1.49231 c 0.762092,-2.11808 0.930626,-6.47718 0.338119,-8.74544 C 34.681506,11.62083 30.657914,7.32686 25.481417,5.64791 21.187082,4.25508 15.987508,4.92459 12.231504,7.35402 9.0184421,9.43227 6.3407888,13.12474 5.3845705,16.79591 c -0.5277505,2.02617 -0.5224258,5.83291 0.011051,7.90073 1.4275158,5.5332 6.0197495,10.00567 11.7512395,11.44477 2.147847,0.5393 6.077832,0.39406 8.276617,-0.30587 l 1.529561,-0.4869 1.842428,1.82831 c 2.133669,2.11732 2.194518,1.97318 -1.329675,3.14984 -3.652884,1.21962 -6.915286,1.47458 -10.451042,0.81673 z m 35.321876,0.0239 C 47.89896,40.17911 44.187785,36.33924 43.364151,31.88379 43.205783,31.0271 43.076209,27.49054 43.076209,24.02477 v -6.30141 h 2.910417 2.910417 v 6.16969 c 0,7.44635 0.165684,8.25167 2.062782,10.02618 2.462195,2.30309 5.583073,2.30309 8.045269,0 1.897097,-1.77451 2.062782,-2.57983 2.062782,-10.02618 v -6.16969 h 2.910417 2.910417 v 6.30141 c 0,3.46577 -0.129574,7.00233 -0.287942,7.85902 -0.847264,4.58328 -4.780852,8.51686 -9.364126,9.36413 -1.921381,0.35518 -3.025152,0.33705 -4.900016,-0.0805 z m 25.135417,0 c -4.47219,-0.996 -8.120943,-4.80786 -8.990355,-9.39226 -0.148534,-0.78321 -0.270062,-4.26527 -0.270062,-7.73791 v -6.31389 h 2.910417 2.910417 v 6.16969 c 0,7.44635 0.165684,8.25167 2.062782,10.02618 0.926281,0.86643 1.643193,1.27776 2.646529,1.51845 l 1.376105,0.33013 v 2.88402 c 0,3.29655 0.163364,3.14123 -2.645833,2.51559 z m 13.229167,0 C 86.22902,40.17142 82.580267,36.35956 81.710855,31.77516 81.551521,30.935 81.440793,25.32154 81.440793,18.08412 V 5.81711 h 2.910417 2.910417 v 12.12281 c 0,14.04444 7.89e-4,14.05056 2.062782,15.97931 0.926281,0.86643 1.643192,1.27776 2.646528,1.51845 l 1.376106,0.33013 v 2.88402 c 0,3.29655 0.163364,3.14123 -2.645833,2.51559 z m 13.49375,0 c -4.47219,-0.996 -8.120942,-4.80786 -8.990355,-9.39226 -0.148534,-0.78321 -0.270062,-4.26527 -0.270062,-7.73791 v -6.31389 h 2.910417 2.91042 v 6.16969 c 0,7.44635 0.16568,8.25167 2.06278,10.02618 0.92628,0.86643 1.64319,1.27776 2.64652,1.51845 l 1.37611,0.33013 v 2.88402 c 0,3.29655 0.16336,3.14123 -2.64583,2.51559 z m 13.22916,0 c -4.43766,-0.98831 -8.14884,-4.82818 -8.97247,-9.28363 -0.15837,-0.85669 -0.28794,-3.02403 -0.28794,-4.81631 v -3.2587 h 2.91041 2.91042 v 3.12697 c 0,4.11508 0.38321,5.41244 2.06278,6.98348 2.46378,2.30458 5.58289,2.30327 8.04888,-0.003 2.5511,-2.38625 2.66073,-5.74591 0.27087,-8.30086 -0.90081,-0.96304 -1.54757,-1.38595 -2.5774,-1.68533 -1.62322,-0.47188 -3.82731,0.16351 -7.10168,-1.48939 -3.12518,-1.57758 -5.58879,-4.88336 -6.25422,-8.39219 -0.14854,-0.78322 -0.27006,-2.95559 -0.27006,-4.8275 V 5.81749 h 2.91041 2.91042 v 3.26524 c 0,4.07487 0.36296,5.40377 1.90525,6.97576 1.71843,2.04909 3.95194,1.52559 6.1947,1.91302 5.02276,0.9285 8.83984,4.83851 9.68138,9.91708 1.00585,6.07012 -3.35008,12.23361 -9.44173,13.35971 -1.92138,0.35518 -3.02515,0.33705 -4.90002,-0.0805 z m 50.27084,0 c -4.47219,-0.996 -8.12094,-4.80786 -8.99036,-9.39226 -0.14853,-0.78321 -0.27006,-4.26527 -0.27006,-7.73791 v -6.31389 h 2.91042 2.91041 v 6.16969 c 0,7.44635 0.16569,8.25167 2.06279,10.02618 0.92628,0.86643 1.64319,1.27776 2.64653,1.51845 l 1.3761,0.33013 v 2.88402 c 0,3.29655 0.16337,3.14123 -2.64583,2.51559 z m 13.22916,0 c -4.43766,-0.98831 -8.14884,-4.82818 -8.97247,-9.28363 -0.15837,-0.85669 -0.28794,-4.39325 -0.28794,-7.85902 v -6.30141 h 2.91041 2.91042 v 6.16969 c 0,7.44635 0.16569,8.25167 2.06278,10.02618 2.4622,2.30309 5.58308,2.30309 8.04527,0 1.8971,-1.77451 2.06279,-2.57983 2.06279,-10.02618 v -6.16969 h 2.91041 2.91042 v 6.30141 c 0,3.46577 -0.12958,7.00233 -0.28794,7.85902 -0.84727,4.58328 -4.78086,8.51686 -9.36413,9.36413 -1.92138,0.35518 -3.02515,0.33705 -4.90002,-0.0805 z m 15.87501,-5.93297 c 0,-3.46577 0.12957,-7.00233 0.28794,-7.85902 0.87699,-4.74408 4.8854,-8.6177 9.74865,-9.42085 3.33407,-0.55061 6.75427,0.39499 9.49089,2.62399 l 1.40991,1.14839 1.19277,-1.09946 c 4.17025,-3.844 11.24804,-3.75661 15.46982,0.191 1.78635,1.67034 2.71616,3.05812 3.43636,5.12888 0.53742,1.5452 0.60127,2.3223 0.71017,8.64317 l 0.11967,6.94531 h -2.91773 -2.91774 l -0.0984,-6.54844 c -0.10641,-7.08024 -0.18539,-7.52086 -1.66194,-9.27202 -2.27179,-2.69429 -6.73767,-2.69429 -9.00946,0 -1.38288,1.64007 -1.44839,2.05608 -1.44839,9.19738 v 6.62308 h -2.91042 -2.91042 v -6.16969 c 0,-7.44635 -0.16568,-8.25167 -2.06278,-10.02618 -2.4622,-2.30309 -5.58307,-2.30309 -8.04527,0 -1.8971,1.77451 -2.06278,2.57983 -2.06278,10.02618 v 6.16969 h -2.91042 -2.91041 z m -167.943158,-3.02298 -8.266055,-8.26605 -3.450574,3.43741 -3.450575,3.43741 -1.578155,-1.62731 c -0.867985,-0.89502 -1.578155,-1.7304 -1.578155,-1.8564 0,-0.126 1.340557,-1.56585 2.979016,-3.19966 l 2.979016,-2.97056 1.188172,0.59322 c 1.64054,0.81907 4.176114,0.8187 5.817623,-8.4e-4 l 1.189868,-0.59406 8.001669,7.99844 8.001668,7.99845 -1.643268,1.658 c -0.903797,0.9119 -1.706477,1.65801 -1.783732,1.65801 -0.07726,0 -3.860189,-3.71973 -8.406518,-8.26606 z M 18.3533,18.23077 c -2.153661,-1.89094 -1.493691,-5.29535 1.181945,-6.09699 3.720374,-1.11465 6.218053,3.52148 3.284706,6.09699 -0.768902,0.67511 -1.153425,0.81552 -2.233326,0.81552 -1.079901,0 -1.464423,-0.14041 -2.233325,-0.81552 z m 50.535418,-6.08542 c -2.933347,-2.57551 -0.435669,-7.21164 3.284705,-6.09699 2.675637,0.80164 3.335606,4.20605 1.181945,6.09699 -0.768902,0.67511 -1.153424,0.81552 -2.233325,0.81552 -1.079901,0 -1.464423,-0.14041 -2.233325,-0.81552 z m 26.722917,0 C 92.678288,9.56984 95.175966,4.93371 98.89634,6.04836 c 2.67564,0.80164 3.33561,4.20605 1.18194,6.09699 -0.768897,0.67511 -1.153419,0.81552 -2.23332,0.81552 -1.079901,0 -1.464423,-0.14041 -2.233325,-0.81552 z m 63.499995,0 c -2.15366,-1.89094 -1.49369,-5.29535 1.18195,-6.09699 3.72037,-1.11465 6.21805,3.52148 3.2847,6.09699 -0.7689,0.67511 -1.15342,0.81552 -2.23332,0.81552 -1.0799,0 -1.46443,-0.14041 -2.23333,-0.81552 z"
     id="path4"
     sodipodi:nodetypes="cssscccssssscccccssssssssscsssssssscsssssscccsssscccssssssscccssscssssscccssscssssscccssscsscsscccsscssssscccsscssccssscccssscssssscccsssscccsssssssscsssscccsssscccsssscccsscccssscsscccsssssssssssssssssssssss" /></svg>
