<?xml version="1.0" encoding="utf-8"?>
<!-- Generator: Adobe Illustrator 21.1.0, SVG Export Plug-In . SVG Version: 6.00 Build 0)  -->
<svg version="1.1" id="Layer_1" xmlns="http://www.w3.org/2000/svg" xmlns:xlink="http://www.w3.org/1999/xlink" x="0px" y="0px"
	 viewBox="0 0 1266.6 227.6" style="enable-background:new 0 0 1266.6 227.6;" xml:space="preserve">
<style type="text/css">
	.st0{fill:#281816;}
	.st1{fill:#EF592B;}
</style>
<g>
	<g>
		<g>
			<g>
				<g>
					<path class="st0" d="M57,107.1V89.8h9.8v10.6c3.7,1,9.3,2,15.1,2c10.2,0,17.6-3.4,17.6-11.2c0-19-41.2-10.1-41.2-36.8
						c0-13.7,10.9-20.5,26.6-20.5c7.9,0,16.6,1.7,22.7,3.8v17.1h-9.9V43.9c-3.2-0.7-7.9-1.5-12.4-1.5c-10.1,0-16.6,3.9-16.6,10.9
						c0,17.8,41.2,9.5,41.2,37.1c0,14.8-11.9,20.6-27.3,20.6C73.5,111,64,109,57,107.1z"/>
					<path class="st0" d="M140.8,100.9h11.7V43.9h-18v12.3h-9.8v-21H191v21h-9.9V43.9h-17.9v56.9h11.7v8.7h-34.1V100.9z"/>
					<path class="st0" d="M197,100.9h9.5l23-56.9h-10.6v-8.7H245l26.6,65.6h9.6v8.7h-31.8v-8.7h11.1l-5.7-14.3h-32.1l-5.6,14.3h11
						v8.7H197V100.9z M251.5,77.9l-12.7-32.3l-12.7,32.3H251.5z"/>
					<path class="st0" d="M294.7,100.9h11V43.9h-11v-8.7h34.8c17.8,0,29.6,8.8,29.6,22.7c0,10-6,17.4-16.3,20.4l12.6,22.6h10.2v8.7
						h-17.6l-15.7-28.4h-15.9v19.8h10.9v8.7h-32.6V100.9z M329.7,72.7c13.2,0,18.5-6.1,18.5-14.4c0-8.3-5.5-14.4-18.5-14.4h-13.3
						v28.8H329.7z"/>
					<path class="st0" d="M390.7,100.9h11.7V43.9h-18v12.3h-9.8v-21H441v21h-9.9V43.9h-17.9v56.9h11.7v8.7h-34.1V100.9z"/>
					<path class="st0" d="M466.5,84.8V43.9h-10.9v-8.7H488v8.7h-10.9v40c0,12.7,8.7,17.4,18.9,17.4c10.2,0,18.7-4.9,18.7-17.6V43.9
						h-11.2v-8.7h32.1v8.7h-10.9V84c0,17.2-11.5,26.9-29,26.9C479.9,111,466.5,102.9,466.5,84.8z"/>
					<path class="st0" d="M550,100.9h11V43.9h-11v-8.7h33.7c17.9,0,29.6,9.1,29.6,23.5c0,14.4-11.7,23.5-29.6,23.5h-11.9v18.5h13.2
						v8.7H550V100.9z M571.7,73.7h12.2c13.2,0,18.5-6.6,18.5-14.9c0-8.3-5.4-14.9-18.5-14.9h-12.2V73.7z"/>
					<path class="st0" d="M778.1,100.9h11V43.9h-11v-8.7h32.6v8.7h-10.9v56.9h10.9v8.7h-32.6V100.9z"/>
					<path class="st0" d="M826.2,72.7c0-23.7,15.4-38.9,39.5-38.9c11,0,21.2,3.2,26.6,5.7V59h-10.4V45.4c-4.1-1.5-10.2-2.6-15.7-2.6
						c-16.8,0-28.9,10.4-28.9,29.4c0,19.9,13.3,29.5,29.4,29.5c9.8,0,19-3.7,25.6-7.4v10.2c-5.5,2.9-14.9,6.5-26.5,6.5
						C842.4,111,826.2,96.8,826.2,72.7z"/>
					<path class="st0" d="M911.3,100.9h11V43.9h-11v-8.7h32.7v8.7h-11v23.8h39.8V43.9h-11v-8.7h32.6v8.7h-10.9v56.9h10.9v8.7h-32.6
						v-8.7h11V76.7H933v24.1h11v8.7h-32.7V100.9z"/>
					<path class="st0" d="M1013.4,100.9h11V43.9h-11v-8.7h32.6v8.7h-10.9v56.9h10.9v8.7h-32.6V100.9z"/>
					<path class="st0" d="M1078.9,100.9h11.7V43.9h-18v12.3h-9.8v-21h66.3v21h-9.9V43.9h-17.9v56.9h11.7v8.7h-34.1V100.9z"/>
					<path class="st0" d="M1135.1,100.9h9.5l23-56.9h-10.6v-8.7h26.1l26.6,65.6h9.6v8.7h-31.8v-8.7h11.1l-5.7-14.3h-32.1l-5.6,14.3
						h11v8.7h-31.1V100.9z M1189.6,77.9L1177,45.6l-12.7,32.3H1189.6z"/>
				</g>
			</g>
			<g>
				<g>
					<path class="st1" d="M231.3,145c6.1,0,10.1,2.5,13.4,7l-4.6,4.3c-2.6-3.8-5.2-5.3-8.8-5.3c-5.5,0-8.9,4.9-8.9,10.8
						c0,6.7,4.3,10.8,9.1,10.8c3,0,6.2-1.6,8.6-5.1l4.6,4.3c-3.3,4.5-7.4,6.7-13.4,6.7c-9.6,0-15.2-8.1-15.2-16.7
						C216.1,153.2,221.7,145,231.3,145z"/>
					<path class="st1" d="M279.7,178l-8-11.8h-5.1V178h-6v-32.4h12.9c6.6,0,11.5,3.6,11.5,9.9c0,5.2-3.5,8.4-6.9,9.6l8.9,12.9H279.7
						z M273.5,151.8h-6.9v8.2h6.6c3.6,0,5.5-1.4,5.5-4.4C278.7,153,276.9,151.8,273.5,151.8z"/>
					<path class="st1" d="M323.2,170.1h-12.3L308,178h-6.5l12-32.4h7.1l12,32.4h-6.5L323.2,170.1z M313.1,164h7.8l-3.8-10.4
						L313.1,164z"/>
					<path class="st1" d="M355.3,166.3V178h-6v-32.4h22.5v6.2h-16.5v8.3h15.1v6.2H355.3z"/>
					<path class="st1" d="M404.9,151.8V178h-6v-26.2h-11.2v-6.2h28.4v6.2H404.9z"/>
					<path class="st1" d="M432.2,178v-32.4h21.6v6.2h-15.6v5.6h14.2v6.3h-14.2v8.2h16.6v6.2H432.2z"/>
					<path class="st1" d="M485.9,178h-12v-32.4h12c11.4,0,16.7,7.4,16.7,16.2C502.6,170.7,497,178,485.9,178z M485.6,151.9h-5.8
						v19.9h5.8c7.1,0,10.6-4.3,10.6-10C496.3,155.9,492.3,151.9,485.6,151.9z"/>
					<path class="st1" d="M536,178v-32.4h6V178H536z"/>
					<path class="st1" d="M583.2,178l-14.7-22.9V178h-6v-32.4h7.8l14.7,23.2v-23.2h6V178H583.2z"/>
					<path class="st1" d="M640.1,151.8V178h-6v-26.2H623v-6.2h28.4v6.2H640.1z"/>
					<path class="st1" d="M689.9,178V165h-16.5V178h-6v-32.4h6v13.1h16.5v-13.1h6V178H689.9z"/>
					<path class="st1" d="M715.5,178v-32.4h21.6v6.2h-15.6v5.6h14.2v6.3h-14.2v8.2h16.6v6.2H715.5z"/>
					<path class="st1" d="M797.8,178v-21.8l-7.3,12.8h-5.1l-7.4-13.1V178h-6v-32.4h7.5L788,161l8.3-15.3h7.5V178H797.8z"/>
					<path class="st1" d="M824.4,178v-32.4h6V178H824.4z"/>
					<path class="st1" d="M863,178h-12v-32.4h12c11.4,0,16.7,7.4,16.7,16.2C879.7,170.7,874.1,178,863,178z M862.7,151.9h-5.8v19.9
						h5.8c7.1,0,10.6-4.3,10.6-10C873.3,155.9,869.4,151.9,862.7,151.9z"/>
					<path class="st1" d="M928.4,178h-7.6l-5.9-22.9l-6,22.9h-7.4l-7.7-32.4h6.3l5.5,22.3l5.7-22.3h7.5l5.8,22.4l5.3-22.4h6.2
						L928.4,178z"/>
					<path class="st1" d="M953.5,178v-32.4h21.6v6.2h-15.6v5.6h14.2v6.3h-14.2v8.2h16.6v6.2H953.5z"/>
					<path class="st1" d="M1013.7,155.5c-2.2-3.8-5.4-4.5-7.9-4.5c-3.6,0-5.6,1.2-5.6,3.3c0,6.3,18.1,1.7,18.1,14.7
						c0,6.1-5.8,9.7-12.8,9.7c-5.5,0-10.1-1.3-13.7-6.1l4.5-4.3c2.3,3.5,5.7,4.4,9.3,4.4c3.3,0,6.4-1.1,6.4-3.7
						c0-6.4-18.1-2-18.1-14.6c0-4.9,3.9-9.4,11.9-9.4c3.8,0,8.8,1,12.5,6.2L1013.7,155.5z"/>
					<path class="st1" d="M1050.1,151.8V178h-6v-26.2h-11.2v-6.2h28.4v6.2H1050.1z"/>
				</g>
			</g>
			<g>
				<polygon class="st1" points="177.1,148.2 181.2,156.6 189.6,160.7 181.2,164.8 177.1,173.1 173,164.8 164.7,160.7 173,156.6 
									"/>
				<polygon class="st1" points="1098.8,148.2 1094.7,156.6 1086.3,160.7 1094.7,164.8 1098.8,173.1 1102.9,164.8 1111.3,160.7 
					1102.9,156.6 				"/>
			</g>
		</g>
	</g>
	<polygon class="st0" points="732.8,35.3 732.8,43.9 744.2,43.9 727.9,96.2 710.5,43.9 722,43.9 722,35.3 690.3,35.3 690.3,43.9 
		700.3,43.9 682.9,96.2 666.6,43.9 678,43.9 678,35.3 646.7,35.3 646.7,43.9 655.9,43.9 677.3,109.5 687.5,109.5 705.4,58.4 
		723.3,109.5 733.5,109.5 754.8,43.9 764.1,43.9 764.1,35.3 	"/>
</g>
</svg>
