<?xml version="1.0" encoding="utf-8"?>
<!-- Generator: Adobe Illustrator 21.1.0, SVG Export Plug-In . SVG Version: 6.00 Build 0)  -->
<svg version="1.1" id="Layer_1" xmlns="http://www.w3.org/2000/svg" xmlns:xlink="http://www.w3.org/1999/xlink" x="0px" y="0px"
	 viewBox="0 0 1258 315" style="enable-background:new 0 0 1258 315;" xml:space="preserve">
<style type="text/css">
	.st0{fill:#FFFFFF;}
	.st1{fill:#BFBFBF;}
</style>
<g>
	<path class="st0" d="M227.1,272l-46.2-157.7c1.8-1.2,3.1-3.3,3.2-5.7c0.2-4-2.9-7.5-6.9-7.7c-4-0.2-7.5,2.9-7.7,6.9
		c0,0.1,0,0.2,0,0.3l-24.1,10.2c-1.3-1.5-3.1-2.5-5.2-2.6c-0.1,0-0.2,0-0.4,0l-20.7-67c1.8-1.2,3-3.3,3.1-5.6c0.2-4-2.9-7.5-6.9-7.7
		c-4-0.2-7.5,2.9-7.7,6.9c0,0.4,0,0.8,0.1,1.2L41.5,74c-1.2-1.8-3.2-3-5.6-3.1c-4-0.2-7.5,2.9-7.7,6.9c-0.2,4,2.9,7.5,6.9,7.7
		c0,0,0,0,0.1,0l61.3,117.3c-1.2,1.2-2,2.9-2.1,4.8c-0.2,4,2.9,7.5,6.9,7.7c4,0.2,7.5-2.9,7.7-6.9c0-0.3,0-0.5,0-0.8l28-10.7
		c1.3,1.7,3.2,2.8,5.4,2.9c1.2,0.1,2.3-0.2,3.3-0.6l73.3,77.6c-0.3,0.7-0.5,1.5-0.5,2.3c-0.2,4,2.9,7.5,6.9,7.7s7.5-2.9,7.7-6.9
		C233.4,275.8,230.7,272.6,227.1,272z M145.3,185.5l-2.8-52.9l74.8,135.7l-68.3-72.2c0.6-1,1-2.1,1.1-3.4
		C150.3,189.4,148.2,186.6,145.3,185.5z M170.8,112.5c1.2,1.8,3.3,3.1,5.6,3.2c0.1,0,0.1,0,0.2,0l43.6,148.8l-75.1-136.2
		c1.2-1.2,1.9-2.8,2-4.6c0-0.4,0-0.7-0.1-1L170.8,112.5z M109.6,47.8c1.3,1.4,3,2.3,5.1,2.4c0.1,0,0.2,0,0.3,0l20.7,67
		c-0.5,0.3-0.9,0.7-1.3,1.2L42.8,78.9c0-0.1,0-0.2,0.1-0.4c0-0.1,0-0.2,0-0.3L109.6,47.8z M41.1,82.9l91.6,39.5c0,0.1,0,0.2-0.1,0.4
		c-0.1,2.3,0.9,4.4,2.4,5.8l-32.4,72.1c-0.2,0-0.3-0.1-0.5-0.1c-0.6,0-1.1,0-1.6,0.1L39.6,84.2C40.2,83.9,40.6,83.4,41.1,82.9z
		 M107.5,203.4c-0.3-0.3-0.5-0.6-0.8-0.9l31.5-70.1l2.8,53c-2.9,0.8-5.2,3.4-5.3,6.6c0,0.2,0,0.4,0,0.6L107.5,203.4z"/>
	<g>
		<path class="st0" d="M792.7,109.3h-38.6v-5.9h83.5v5.9H799v97.6h-6.4V109.3z"/>
		<path class="st0" d="M913.5,171.1h-43.9l-13.3,35.8h-6.8l38.7-103.5h6.8l38.7,103.5h-6.8L913.5,171.1z M891.4,110.8
			c0,0-2.2,8-3.8,12.4l-15.8,42h39.5l-15.7-42c-1.6-4.4-3.8-12.4-3.8-12.4H891.4z"/>
		<path class="st0" d="M967.2,103.4h6.4v97.6h49.4v5.9h-55.7V103.4z"/>
		<path class="st0" d="M1057.2,103.4h6.4v46.1h19.2l29.6-46.1h7.7l-31.8,48.8v0.3l33.9,54.4h-7.7l-31.6-51.5h-19.2v51.5h-6.4V103.4z
			"/>
		<path class="st0" d="M1154.3,190.9c0,0,10.5,11.5,27.6,11.5c12.9,0,23.1-8,23.1-20.4c0-29.4-52.9-21.3-52.9-53.7
			c0-13.7,12.3-26.8,31-26.8c16.9,0,26.3,9.6,26.3,9.6l-3.6,5.5c0,0-8.9-8.9-22.6-8.9c-15.4,0-24.5,10.4-24.5,20.4
			c0,27.3,52.9,18.9,52.9,53.5c0,14.9-11.5,26.9-30,26.9c-20.4,0-31.6-12.9-31.6-12.9L1154.3,190.9z"/>
		<path class="st1" d="M323.1,112.4c0,0-2.1,9.8-4,16.4l-21.9,78.1h-8L262,103.4h6.7l21.9,84.3c1.3,5,2.5,11.1,2.5,11.1h0.3
			c0.1,0,1.3-5.9,2.8-11.1l23.7-84.3h7.1l23.7,84.3c1.5,5.2,2.7,11.1,2.8,11.1h0.3c0,0,1.2-6.1,2.5-11.1l22.6-84.3h6.7l-27.9,103.5
			h-8l-21.9-78.1c-1.9-6.7-4-16.4-4-16.4h-0.3H323.1z"/>
		<path class="st1" d="M422.3,103.4h6.4v103.5h-6.4V103.4z"/>
		<path class="st1" d="M519.7,101.6c24.5,0,37,13,37,13l-3.8,4.7c0,0-12.3-11.7-33-11.7c-25.4,0-44.8,20-44.8,46.7
			c0,26.9,19.2,48.2,45.2,48.2c22.2,0,35-14,35-14l4,4.4c0,0-13.9,15.7-39,15.7c-30.2,0-51.9-24.2-51.9-54.3
			C468.4,124.4,490.6,101.6,519.7,101.6z"/>
		<path class="st1" d="M598.7,103.4h6.4V152h65.6v-48.6h6.4v103.5h-6.4v-48.9h-65.6v48.9h-6.4V103.4z"/>
		<path class="st1" d="M723.8,103.4h6.4v103.5h-6.4V103.4z"/>
	</g>
</g>
</svg>
