<svg width="100" height="100" viewBox="0 0 100 100" fill="none" xmlns="http://www.w3.org/2000/svg">
<g clip-path="url(#clip0)">
<path d="M78.003 44.0241H61.063L62.3557 36.2852H77.799C83.9899 36.2852 89.0923 41.3087 89.0923 47.5541V58.823C89.0923 62.0136 87.4595 65.0005 84.8062 66.7655L61.5393 82.1076L61.1992 74.9117C61.1311 73.4862 61.8114 72.1964 63.036 71.4496L78.1391 62.2172C80.4522 60.7917 81.8128 58.3478 81.8128 55.6324V47.8935C81.8808 45.7212 80.1801 44.0241 78.003 44.0241Z" fill="#A55302"/>
<path d="M21.5544 85.221C21.5544 85.3777 21.5544 85.4821 21.6065 85.6388C21.6065 85.7433 21.6587 85.8477 21.6587 86.0044C21.6587 86.161 21.7109 86.2655 21.7109 86.4222C21.7109 86.4744 21.7109 86.5266 21.7109 86.5788C21.7109 86.631 21.7631 86.7355 21.7631 86.7877C21.8153 86.8921 21.8153 87.0488 21.8675 87.1533C21.9197 87.2577 21.9197 87.3621 21.9719 87.5188C22.024 87.6233 22.0762 87.7799 22.0762 87.8844C22.0762 87.9366 22.1284 87.9888 22.1284 88.041C22.1284 88.0933 22.1806 88.1455 22.1806 88.1977C22.2328 88.3544 22.285 88.4588 22.3372 88.6155C22.3893 88.7199 22.4415 88.8244 22.4937 88.9288C22.5459 89.0855 22.6503 89.1899 22.7025 89.3466C22.7547 89.3988 22.7547 89.451 22.8069 89.5555C22.8069 89.6077 22.859 89.6599 22.9112 89.6599C23.0156 89.8166 23.1199 89.9733 23.1721 90.1299C23.2243 90.2344 23.2765 90.3388 23.3809 90.391C23.4853 90.5477 23.6418 90.7566 23.7462 90.9133C23.7984 90.9655 23.8506 91.0177 23.9027 91.1222C23.9027 91.1222 23.9027 91.1222 23.9549 91.1744C24.1637 91.4355 24.3724 91.6966 24.6334 91.9577C24.6856 92.0099 24.7377 92.1144 24.8421 92.1666C25.0508 92.3755 25.2074 92.5844 25.4162 92.741C25.4683 92.7933 25.5205 92.8455 25.5727 92.8977C25.6249 92.9499 25.6771 93.0022 25.7293 93.0544C25.8336 93.1588 25.9902 93.2633 26.0946 93.3677C26.1989 93.4722 26.3555 93.5766 26.4599 93.6811C26.6164 93.7855 26.7208 93.89 26.8774 93.9944C26.9817 94.0988 27.1383 94.2033 27.2427 94.3077C27.3992 94.4122 27.5558 94.5166 27.6602 94.6211C27.8167 94.7255 27.9211 94.8299 28.0776 94.8822C28.2342 94.9866 28.3908 95.0911 28.5473 95.1955C28.6517 95.2477 28.7561 95.2999 28.8604 95.3522C28.9648 95.4044 29.0692 95.4566 29.1735 95.5611C29.591 95.77 29.9564 96.0311 30.3738 96.2399C30.4782 96.2922 30.6348 96.3444 30.7391 96.3966C31.0522 96.5533 31.3654 96.71 31.7307 96.8666C31.835 96.9188 31.9394 96.9711 32.0438 97.0233C32.4613 97.2322 32.9309 97.3888 33.3484 97.5455C33.4006 97.5977 33.505 97.5977 33.6094 97.65C33.9747 97.8066 34.34 97.9111 34.7575 98.0677C34.8097 98.0677 34.8619 98.12 34.9662 98.12C35.0706 98.1722 35.175 98.1722 35.2272 98.2244C35.4359 98.2766 35.6447 98.3811 35.8534 98.4333C36.01 98.4855 36.2187 98.5377 36.3753 98.59C36.584 98.6422 36.7927 98.6944 37.0537 98.7466C37.2624 98.7988 37.419 98.8511 37.6277 98.9033C37.8365 98.9555 38.0974 99.0077 38.3061 99.06C38.5149 99.1122 38.6714 99.1644 38.8802 99.1644C39.0889 99.2166 39.3499 99.2688 39.5586 99.3211C39.663 99.3211 39.8195 99.3733 39.9239 99.3733C39.9761 99.3733 40.0283 99.3733 40.0805 99.3733C40.5501 99.4777 41.072 99.53 41.5417 99.6344C41.5939 99.6344 41.6982 99.6344 41.7504 99.6866C42.1679 99.7389 42.6376 99.7911 43.0551 99.8433C43.1073 99.8433 43.2116 99.8433 43.2638 99.8433C43.3682 99.8433 43.4726 99.8433 43.5769 99.8433C43.8379 99.8433 44.151 99.8955 44.4119 99.8955C44.5685 99.8955 44.7772 99.8955 44.9338 99.9477C45.2469 99.9477 45.5078 100 45.8209 100C45.9253 100 46.0819 100 46.1863 100C46.2384 100 46.2906 100 46.3428 100C46.6037 100 46.8647 100 47.1256 100C47.2822 100 47.4909 100 47.6475 100C47.9084 100 48.2215 100 48.4824 100C48.639 100 48.7434 100 48.8999 100H48.9521C49.2131 100 49.474 100 49.7349 99.9477C49.8915 99.9477 50.1002 99.9477 50.2568 99.9477C50.5177 99.9477 50.7786 99.8955 51.0396 99.8955C51.1961 99.8955 51.3527 99.8955 51.4571 99.8433C51.7702 99.7911 52.0833 99.7911 52.4486 99.7389C52.553 99.7389 52.6573 99.7389 52.7617 99.6866C53.1792 99.6344 53.5967 99.5822 54.0142 99.53C54.0664 99.53 54.1185 99.53 54.2229 99.4777C54.5882 99.4255 54.9535 99.3733 55.2666 99.3211C55.4232 99.3211 55.5798 99.2689 55.6842 99.2166C55.9451 99.1644 56.206 99.1122 56.5191 99.06C56.5713 99.06 56.5713 99.06 56.6235 99.06C56.7279 99.06 56.8322 99.0077 56.9366 99.0077C57.2497 98.9555 57.5107 98.9033 57.8238 98.7988C57.9803 98.7466 58.1369 98.6944 58.2935 98.6944C58.5544 98.6422 58.8153 98.5377 59.0763 98.4855C59.1806 98.4855 59.2328 98.4333 59.3372 98.4333C59.3894 98.4333 59.4937 98.3811 59.5459 98.3811C59.9634 98.2766 60.3809 98.1199 60.7984 98.0155C60.8506 98.0155 60.9549 97.9633 61.0071 97.9633C61.4768 97.8066 61.9465 97.6499 62.4162 97.4411C62.4683 97.4411 62.5205 97.3888 62.5727 97.3888C62.7293 97.3366 62.8337 97.2844 62.9902 97.2322C63.1468 97.1799 63.3033 97.1277 63.4077 97.0755C63.6164 96.9711 63.8252 96.9188 64.0339 96.8144C64.1905 96.7622 64.2949 96.7099 64.4514 96.6577C64.6602 96.5533 64.8689 96.4488 65.1298 96.3444C65.2342 96.2922 65.3386 96.2399 65.4429 96.1877C65.7561 96.0311 66.0692 95.8222 66.3823 95.6655C71.5488 92.6888 74.1581 88.7722 74.1059 84.8555L73.9493 26.3142C73.9493 30.2309 71.3922 34.1475 66.2257 37.1242C65.9126 37.2809 65.5995 37.4898 65.2864 37.6464C65.182 37.6987 65.0777 37.7509 64.9733 37.8031C64.7645 37.9076 64.5558 38.012 64.2949 38.1164C64.1905 38.1687 64.0339 38.2209 63.8774 38.2731C63.6686 38.3776 63.4599 38.482 63.2512 38.5342C63.0946 38.5864 62.938 38.6387 62.8336 38.6909C62.6249 38.7431 62.4683 38.8476 62.2596 38.8998C61.7899 39.0564 61.3202 39.2653 60.8506 39.422C60.7984 39.422 60.694 39.4742 60.6418 39.4742C60.2243 39.6309 59.8068 39.7353 59.3894 39.8398C59.2328 39.892 59.0762 39.9442 58.9197 39.9442C58.6587 39.9964 58.3978 40.1009 58.1369 40.1531C57.9803 40.2053 57.8238 40.2576 57.6672 40.2576C57.3541 40.3098 57.0932 40.4142 56.78 40.4664C56.6235 40.5187 56.5191 40.5187 56.3626 40.5709C56.1016 40.6231 55.8407 40.6753 55.5276 40.7276C55.371 40.7798 55.2145 40.7798 55.1101 40.832C54.7448 40.8842 54.3795 40.9364 54.0664 40.9887C54.0142 40.9887 53.9098 40.9887 53.8576 41.0409C53.4401 41.0931 53.0226 41.1453 52.6052 41.1976C52.5008 41.1976 52.3964 41.1976 52.292 41.2498C51.9789 41.302 51.6658 41.302 51.3005 41.3542C51.1439 41.3542 50.9874 41.3542 50.8308 41.4065C50.5699 41.4065 50.3089 41.4587 50.048 41.4587C49.8915 41.4587 49.6827 41.4587 49.5262 41.4587C49.2652 41.4587 49.0043 41.4587 48.7434 41.5109C48.5868 41.5109 48.4303 41.5109 48.2737 41.5109C48.0128 41.5109 47.6996 41.5109 47.4387 41.5109C47.2821 41.5109 47.0734 41.5109 46.9168 41.5109C46.6559 41.5109 46.395 41.5109 46.1341 41.5109C45.9775 41.5109 45.8209 41.5109 45.6122 41.5109C45.2991 41.5109 45.0382 41.4587 44.7251 41.4587C44.5685 41.4587 44.3597 41.4587 44.2032 41.4065C43.9423 41.4065 43.6291 41.3542 43.3682 41.3542C43.2116 41.3542 43.0551 41.302 42.8463 41.302C42.4288 41.2498 41.9592 41.1976 41.5417 41.1453C41.4895 41.1453 41.3851 41.1453 41.3329 41.0931C40.8111 41.0409 40.3414 40.9364 39.8717 40.832C39.7152 40.7798 39.5064 40.7798 39.3498 40.7276C39.1411 40.6753 38.8802 40.6231 38.6714 40.5709C38.4627 40.5187 38.3061 40.4664 38.0974 40.4664C37.8887 40.4142 37.6277 40.362 37.419 40.3098C37.2102 40.2576 37.0537 40.2053 36.8449 40.1531C36.6362 40.1009 36.4274 40.0487 36.1665 39.9964C36.0099 39.9442 35.8012 39.892 35.6446 39.8398C35.4359 39.7876 35.2271 39.7353 35.0184 39.6309C34.8618 39.5787 34.7053 39.5264 34.5487 39.4742C34.1834 39.3698 33.7659 39.2131 33.4006 39.0564C33.2963 39.0042 33.2441 39.0042 33.1397 38.952C32.67 38.7953 32.2525 38.5864 31.8351 38.4298C31.7307 38.3776 31.6263 38.3253 31.5219 38.2731C31.2088 38.1164 30.8435 37.9598 30.5304 37.8031C30.426 37.7509 30.2695 37.6987 30.1651 37.6464C29.7476 37.4376 29.3301 37.2287 28.9648 36.9676C28.7561 36.8631 28.5473 36.7064 28.3386 36.602C28.182 36.4976 28.0254 36.3931 27.8689 36.2887C27.7123 36.1842 27.608 36.0798 27.4514 36.0275C27.2948 35.9231 27.1383 35.8187 27.0339 35.7142C26.8774 35.6098 26.773 35.5053 26.6686 35.4009C26.5121 35.2964 26.4077 35.192 26.2511 35.0875C26.1468 34.9831 25.9902 34.8787 25.8858 34.7742C25.7814 34.6698 25.6249 34.5653 25.5205 34.4609C25.4161 34.3564 25.3118 34.3042 25.2596 34.1998C25.0508 33.9909 24.8421 33.782 24.6855 33.6253C24.6334 33.5731 24.529 33.4686 24.4768 33.4164C24.2159 33.1553 24.0071 32.8942 23.7984 32.6331C23.7462 32.5809 23.694 32.4764 23.6418 32.4242C23.5374 32.2675 23.3809 32.1109 23.2765 31.902C23.2243 31.7975 23.1721 31.6931 23.12 31.6409C23.0156 31.4842 22.9112 31.3275 22.8069 31.1709C22.7547 31.0664 22.7025 30.962 22.6503 30.8575C22.5981 30.7009 22.4937 30.5964 22.4415 30.4398C22.3894 30.3353 22.3372 30.2309 22.285 30.1264C22.2328 29.9697 22.1806 29.8653 22.1284 29.7086C22.0762 29.6042 22.0241 29.4998 22.0241 29.3953C21.9719 29.2909 21.9197 29.1342 21.9197 29.0298C21.8675 28.9253 21.8675 28.8209 21.8153 28.6642C21.7631 28.5598 21.7631 28.4031 21.7109 28.2986C21.7109 28.1942 21.6587 28.0897 21.6587 27.9331C21.6587 27.7764 21.6065 27.672 21.6065 27.5153C21.6065 27.4109 21.5544 27.3064 21.5544 27.1497C21.5544 26.9931 21.5544 26.8886 21.5022 26.732C21.5022 26.5753 21.5022 26.4186 21.5022 26.262L21.6587 84.8033C21.6587 84.8555 21.6587 84.9599 21.6587 85.0121C21.5544 85.0644 21.5544 85.1688 21.5544 85.221Z" fill="#F7941E"/>
<path d="M73.8969 26.1053C73.8969 30.022 71.3398 33.9386 66.1734 36.9153C65.8603 37.072 65.5472 37.2809 65.2341 37.4375C65.1297 37.4898 65.0253 37.542 64.9209 37.5942C64.7122 37.6987 64.5035 37.8031 64.2425 37.9075C64.1382 37.9598 63.9816 38.012 63.825 38.0642C63.6163 38.1687 63.4076 38.2731 63.1988 38.3253C63.0422 38.3776 62.8857 38.4298 62.7813 38.482C62.5726 38.5342 62.416 38.6387 62.2073 38.6909C62.1551 38.7431 62.0507 38.7431 61.9985 38.7431V97.3366C62.1029 97.2844 62.2073 97.2322 62.3638 97.2322C62.416 97.2322 62.4682 97.18 62.5204 97.18C62.677 97.1277 62.7813 97.0755 62.9379 97.0233C63.0944 96.9711 63.251 96.9189 63.3554 96.8666C63.5641 96.7622 63.7729 96.71 63.9816 96.6055C64.1382 96.5533 64.2425 96.5011 64.3991 96.4488C64.6078 96.3444 64.8166 96.2399 65.0775 96.1355C65.1819 96.0833 65.2863 96.0311 65.3906 95.9788C65.7037 95.8222 66.0168 95.6133 66.33 95.4566C71.4964 92.4799 74.1057 88.5633 74.0535 84.6466L73.8969 26.1053Z" fill="#D17C00"/>
<path d="M21.5542 85.221C21.5542 85.3776 21.5542 85.4821 21.6064 85.6387C21.6064 85.7432 21.6586 85.8476 21.6586 86.0043C21.6586 86.161 21.7108 86.2654 21.7108 86.4221C21.7108 86.4743 21.7108 86.5265 21.7108 86.5787C21.7108 86.631 21.763 86.7354 21.763 86.7876C21.8151 86.8921 21.8151 87.0487 21.8673 87.1532C21.9195 87.2576 21.9195 87.3621 21.9717 87.5187C22.0239 87.6232 22.0761 87.7799 22.0761 87.8843C22.0761 87.9365 22.1282 87.9887 22.1282 88.041C22.1282 88.0932 22.1804 88.1454 22.1804 88.1976C22.2326 88.3543 22.2848 88.4587 22.337 88.6154C22.3892 88.7198 22.4414 88.8243 22.4935 88.9287C22.5457 89.0854 22.6501 89.1898 22.7023 89.3465C22.7545 89.3987 22.7545 89.451 22.8067 89.5554C22.8067 89.6076 22.8588 89.6599 22.911 89.6599C23.0154 89.8165 23.1198 89.9732 23.172 90.1299C23.2241 90.2343 23.2763 90.3387 23.3807 90.391C23.4851 90.5476 23.6416 90.7565 23.746 90.9132C23.7982 90.9654 23.8504 91.0176 23.9026 91.1221C23.9026 91.1221 23.9026 91.1221 23.9547 91.1743C24.1635 91.4354 24.3723 91.6965 24.6332 91.9576C24.6854 92.0099 24.7375 92.1143 24.8419 92.1665C25.0507 92.3754 25.2072 92.5843 25.416 92.741C25.4682 92.7932 25.5203 92.8454 25.5725 92.8976C25.6247 92.9499 25.6769 93.0021 25.7291 93.0543C25.8335 93.1588 25.99 93.2632 26.0944 93.3676C26.1988 93.4721 26.3553 93.5765 26.4597 93.681C26.6163 93.7854 26.7206 93.8899 26.8772 93.9943C26.9816 94.0988 27.1381 94.2032 27.2425 94.3076C27.3991 94.4121 27.5556 94.5165 27.66 94.621C27.8165 94.7254 27.9209 94.8299 28.0775 94.8821C28.234 94.9865 28.3906 95.091 28.5471 95.1954C28.6515 95.2476 28.7559 95.2999 28.8602 95.3521C28.9646 95.4043 29.069 95.4565 29.1734 95.561C29.5908 95.7699 29.9562 96.031 30.3737 96.2399C30.478 96.2921 30.6346 96.3443 30.7389 96.3965C31.0521 96.5532 31.3652 96.7099 31.7305 96.8666C31.8349 96.9188 31.9392 96.971 32.0436 97.0232C32.4611 97.2321 32.9307 97.3888 33.3482 97.5454C33.4004 97.5977 33.5048 97.5977 33.6092 97.6499C33.9745 97.8066 34.3398 97.911 34.7573 98.0677C34.8095 98.0677 34.8617 98.1199 34.966 98.1199C35.0704 98.1721 35.1748 98.1721 35.227 98.2243C35.4357 98.2765 35.6444 98.381 35.8532 98.4332C36.0098 98.4854 36.2185 98.5377 36.3751 98.5899C36.5838 98.6421 36.7925 98.6943 37.0535 98.7465C37.2622 98.7988 37.4188 98.851 37.6275 98.9032C37.6797 98.9032 37.7319 98.9554 37.8363 98.9554V40.4664C37.7319 40.4664 37.6275 40.4142 37.5231 40.4142C37.3144 40.3619 37.1578 40.3097 36.9491 40.2575C36.7403 40.2053 36.5316 40.153 36.2707 40.1008C36.1141 40.0486 35.9054 39.9964 35.7488 39.9442C35.5401 39.8919 35.3313 39.8397 35.1226 39.7353C34.966 39.683 34.8094 39.6308 34.6529 39.5786C34.2876 39.4742 33.8701 39.3175 33.5048 39.1608C33.4004 39.1086 33.3483 39.1086 33.2439 39.0564C32.7742 38.8997 32.3567 38.6908 31.9392 38.5341C31.8349 38.4819 31.7305 38.4297 31.6261 38.3775C31.313 38.2208 30.9477 38.0641 30.6346 37.9075C30.5302 37.8553 30.3737 37.803 30.2693 37.7508C29.8518 37.5419 29.4343 37.333 29.069 37.0719C28.8603 36.9675 28.6515 36.8108 28.4428 36.7064C28.2862 36.6019 28.1296 36.4975 27.9731 36.393C27.8165 36.2886 27.7122 36.1841 27.5556 36.1319C27.399 36.0275 27.2425 35.923 27.1381 35.8186C26.9816 35.7141 26.8772 35.6097 26.7728 35.5052C26.6162 35.4008 26.5119 35.2964 26.3553 35.1919C26.251 35.0875 26.0944 34.983 25.99 34.8786C25.8856 34.7741 25.7291 34.6697 25.6247 34.5652C25.5203 34.4608 25.416 34.4086 25.3638 34.3041C25.155 34.0952 24.9463 33.8864 24.7897 33.7297C24.7376 33.6775 24.6332 33.573 24.581 33.5208C24.3201 33.2597 24.1113 32.9986 23.9026 32.7375C23.8504 32.6852 23.7982 32.5808 23.746 32.5286C23.6416 32.3719 23.4851 32.2152 23.3807 32.0064C23.3285 31.9019 23.2763 31.7975 23.2242 31.7452C23.1198 31.5886 23.0154 31.4319 22.911 31.2752C22.8588 31.1708 22.8067 31.0663 22.7545 30.9619C22.7023 30.8052 22.5979 30.7008 22.5457 30.5441C22.4936 30.4397 22.4413 30.3352 22.3892 30.2308C22.337 30.0741 22.2848 29.9697 22.2326 29.813C22.1804 29.7086 22.1282 29.6041 22.1282 29.4997C22.076 29.3952 22.0239 29.2386 22.0239 29.1341C21.9717 29.0297 21.9717 28.9252 21.9195 28.7686C21.8673 28.6641 21.8673 28.5075 21.8151 28.403C21.8151 28.2986 21.763 28.1941 21.763 28.0374C21.763 27.8808 21.7108 27.7763 21.7108 27.6197C21.7108 27.5152 21.6586 27.4108 21.6586 27.2541C21.6586 27.0974 21.6586 26.993 21.6064 26.8363C21.6064 26.6797 21.6064 26.523 21.6064 26.3663L21.763 84.9076C21.763 84.9598 21.763 85.0643 21.763 85.1165C21.5542 85.0643 21.5542 85.1687 21.5542 85.221Z" fill="#F3A856"/>
<path d="M66.1214 36.9153C76.402 30.962 76.4542 21.3531 66.2257 15.3997C55.9972 9.44635 39.4021 9.44635 29.1214 15.3997C18.8407 21.3531 18.7885 30.962 29.017 36.9153C39.2455 42.8687 55.8407 42.8687 66.1214 36.9153Z" fill="#FBFCFC"/>
<path d="M47.543 39.2131C54.1706 39.2131 60.3808 37.7509 65.0253 35.0353C69.3046 32.5809 71.7051 29.3953 71.7051 26.1053C71.7051 22.8675 69.409 19.7342 65.1819 17.2797C60.5895 14.6164 54.3794 13.1019 47.7518 13.1019C41.1241 13.1019 34.914 14.5642 30.2694 17.2797C25.9902 19.7342 23.5896 22.9197 23.5896 26.2097C23.5896 29.4475 25.8858 32.5809 30.1129 35.0353C34.7052 37.6987 40.9154 39.2131 47.543 39.2131Z" fill="#4D4C4A"/>
<path d="M62.2755 33.9292C65.0584 33.3516 71.9347 31.6398 74.0672 27.7598C80.8361 15.046 69.7404 11.7146 64.5377 12.0011C64.1838 12.0135 63.8523 12.0518 63.5085 12.113C63.4759 12.1198 63.4597 12.1231 63.4271 12.1299C63.4108 12.1333 63.3946 12.1366 63.3946 12.1366L63.3783 12.14C61.5556 12.5183 59.8966 13.605 58.8103 15.3254L54.2798 22.4591C52.091 25.9034 53.059 30.5739 56.44 32.8825C58.2383 34.106 60.359 34.4286 62.2755 33.9292Z" fill="#E2EEF8"/>
<path d="M65.7898 18.3062C65.5357 15.4734 64.6252 8.44138 61.0181 5.87643C49.1736 -2.31099 44.5936 8.33696 44.2811 13.5418C44.2529 13.895 44.2528 14.2289 44.2741 14.5777C44.2771 14.6109 44.2786 14.6274 44.2816 14.6605C44.283 14.6771 44.2845 14.6937 44.2845 14.6937L44.286 14.7103C44.4524 16.5656 45.3409 18.3394 46.9242 19.6166L53.4861 24.9387C56.6541 27.5097 61.4016 27.0833 64.0813 23.987C65.5021 22.3398 66.0657 20.2686 65.7898 18.3062Z" fill="#E2EEF8"/>
<path d="M26.9262 25.0014C29.6192 23.6945 36.2003 20.1747 37.3794 15.6633C41.0198 0.936881 28.8326 0.394225 23.5938 2.02735C23.2356 2.13123 22.9069 2.25576 22.5716 2.40682C22.5401 2.4221 22.5244 2.42974 22.4929 2.44503C22.4771 2.45267 22.4614 2.46031 22.4614 2.46031L22.4456 2.46796C20.6817 3.3239 19.2674 4.861 18.6009 6.89766L15.8103 15.3494C14.4615 19.4303 16.6517 23.9501 20.6982 25.4362C22.8492 26.2222 25.0978 26.0051 26.9262 25.0014Z" fill="#E2EEF8"/>
<path d="M44.307 22.8644C46.9813 21.9013 53.5491 19.2397 55.1157 15.0984C60.0325 1.55911 48.5791 -0.179286 43.4682 0.835802C43.1196 0.897856 42.7967 0.982384 42.4649 1.09129C42.4337 1.10255 42.418 1.10818 42.3867 1.11945C42.3711 1.12508 42.3555 1.13071 42.3555 1.13071L42.3398 1.13635C40.5883 1.76713 39.0983 3.07628 38.2644 4.93235L34.7803 12.6323C33.0968 16.35 34.7108 20.8381 38.3825 22.6485C40.3347 23.607 42.4797 23.6283 44.307 22.8644Z" fill="#E2EEF8"/>
<path d="M15.5 26.6326C16.4939 22.803 19.5971 13.4257 28.1748 11.5193C56.3068 5.58664 65.1553 22.5403 65.101 29.9369C65.1133 30.4422 65.0643 30.9075 64.9647 31.3837C64.953 31.4284 64.9472 31.4508 64.9356 31.4956C64.9298 31.518 64.924 31.5404 64.924 31.5404L64.9182 31.5628C64.2672 34.0711 61.9867 36.1319 58.1994 37.1796L42.4985 41.5618C34.9182 43.6797 24.1871 40.8908 18.5497 35.3379C15.5613 32.3859 14.5843 29.2394 15.5 26.6326Z" fill="#E2EEF8"/>
<path d="M17.1291 26.0454C18.1229 22.2159 21.2261 12.8386 29.8038 10.9321C57.9358 4.99948 66.7842 21.9532 66.7299 29.3498C66.7423 29.855 66.6932 30.3204 66.5936 30.7965C66.582 30.8413 66.5761 30.8637 66.5645 30.9085C66.5587 30.9309 66.5529 30.9533 66.5529 30.9533L66.5471 30.9757C65.8961 33.4839 63.6156 35.5447 59.8283 36.5925L44.1275 40.9746C36.5472 43.0925 25.8162 40.3037 20.1787 34.7507C17.1904 31.7987 16.2134 28.6522 17.1291 26.0454Z" fill="#EEF4FB"/>
<path d="M65.198 17.8025C64.4571 15.0567 62.3421 8.28907 58.3453 6.3887C45.2617 0.380035 42.5957 11.6613 43.1897 16.8415C43.223 17.1943 43.2809 17.5232 43.3623 17.863C43.3709 17.8951 43.3753 17.9112 43.3839 17.9433C43.3883 17.9594 43.3926 17.9754 43.3926 17.9754L43.3969 17.9915C43.8823 19.7899 45.0646 21.3827 46.8451 22.3659L54.2297 26.469C57.7952 28.4515 62.3969 27.2079 64.4996 23.6937C65.6136 21.8249 65.8098 19.6873 65.198 17.8025Z" fill="#EEF4FB"/>
<path d="M62.3871 15.3522C59.7234 16.3442 53.1848 19.0768 51.6631 23.2348C46.893 36.8266 58.3645 38.4408 63.4641 37.3705C63.812 37.3046 64.134 37.2166 64.4645 37.1041C64.4957 37.0925 64.5113 37.0867 64.5424 37.0751C64.558 37.0693 64.5736 37.0635 64.5736 37.0635L64.5892 37.0577C66.3338 36.408 67.8095 35.0828 68.6233 33.2178L72.0239 25.4806C73.6671 21.7448 72.0046 17.2745 68.3136 15.504C66.3512 14.5666 64.206 14.5686 62.3871 15.3522Z" fill="#EEF4FB"/>
<path d="M27.9443 25.5263C30.4365 24.1591 36.5113 20.5086 37.4158 16.174C40.1707 2.03465 28.5864 2.09823 23.6952 3.89567C23.3604 4.01118 23.0546 4.14489 22.7438 4.30406C22.7146 4.32005 22.7 4.32804 22.6709 4.34403C22.6563 4.35203 22.6417 4.36002 22.6417 4.36002L22.6272 4.36802C20.9948 5.26349 19.7263 6.7884 19.1906 8.75161L16.9445 16.8997C15.8586 20.8341 18.15 25.0167 22.0581 26.2342C24.1354 26.8776 26.2577 26.5651 27.9443 25.5263Z" fill="#EEF4FB"/>
<path d="M21.0142 26.0454C22.008 22.2159 25.1113 12.8386 33.689 10.9321C61.821 4.99948 70.6694 21.9532 70.6151 29.3498C70.6275 29.855 70.5785 30.3204 70.4788 30.7965C70.4672 30.8413 70.4614 30.8637 70.4498 30.9085C70.444 30.9309 70.4381 30.9533 70.4381 30.9533L70.4323 30.9757C69.7814 33.4839 67.5008 35.5448 63.7136 36.5925L48.0127 40.9746C40.4323 43.0925 29.7013 40.3037 24.0639 34.7507C21.0755 31.7987 20.0985 28.6522 21.0142 26.0454Z" fill="#EEF4FB"/>
<path d="M59.1296 17.473C58.8755 14.6403 57.965 7.60826 54.3579 5.0433C42.5134 -3.14413 37.9334 7.50383 37.621 12.7086C37.5927 13.0619 37.5927 13.3958 37.614 13.7446C37.6169 13.7777 37.6184 13.7943 37.6214 13.8274C37.6229 13.844 37.6244 13.8606 37.6244 13.8606L37.6259 13.8771C37.7923 15.7325 38.6807 17.5063 40.264 18.7835L46.826 24.1056C49.994 26.6766 54.7415 26.2502 57.4211 23.1539C58.842 21.5067 59.4056 19.4355 59.1296 17.473Z" fill="#EEF4FB"/>
<path d="M27.3283 19.5363C29.5408 17.9278 35.316 14.2835 40.7349 17.0369C58.3666 26.2381 55.6485 39.1847 52.3716 43.1117C52.1564 43.387 51.9258 43.614 51.6635 43.8245C51.6377 43.8433 51.6247 43.8527 51.5988 43.8715C51.5859 43.8809 51.573 43.8904 51.573 43.8904L51.56 43.8998C50.1109 44.9533 47.9878 45.0513 45.5048 43.9456L35.194 39.3824C30.215 37.1804 25.7077 30.9722 25.1348 25.5272C24.8348 22.6364 25.6946 20.5261 27.3283 19.5363Z" fill="#E2EEF8"/>
<path d="M25.6632 20.0918C27.8756 18.4833 33.6509 14.839 39.0697 17.5924C56.7014 26.7936 53.9833 39.7402 50.7064 43.6672C50.4911 43.9425 50.2606 44.1695 49.9983 44.38C49.9724 44.3989 49.9595 44.4083 49.9336 44.4271C49.9207 44.4365 49.9077 44.4459 49.9077 44.4459L49.8948 44.4553C48.4457 45.5088 46.3226 45.6068 43.8396 44.5012L33.5288 39.9379C28.5499 37.736 24.0425 31.5277 23.4696 26.0828C23.1697 23.1919 24.0294 21.0816 25.6632 20.0918Z" fill="#EEF4FB"/>
<path d="M24.0406 20.745C25.4453 20.745 28.9448 21.1116 30.366 25.5375C34.917 40.0982 29.8813 47.3523 27.3347 48.3736C27.1622 48.4522 26.9979 48.4915 26.8254 48.5046C26.809 48.5046 26.8008 48.5046 26.7843 48.5046C26.7761 48.5046 26.7679 48.5046 26.7679 48.5046L26.7597 48.5046C25.8396 48.5046 24.9278 47.5487 24.2295 45.6239L21.3214 37.6495C19.9167 33.7999 19.9167 27.5278 21.3214 23.6519C22.069 21.5961 23.063 20.6141 24.0406 20.745Z" fill="#E2EEF8"/>
<path d="M25.2528 21.2999C26.5922 21.2999 29.929 21.6519 31.2841 25.9007C35.6235 39.8789 30.822 46.8428 28.3938 47.8233C28.2293 47.8988 28.0726 47.9365 27.9082 47.949C27.8925 47.949 27.8847 47.949 27.869 47.949C27.8612 47.949 27.8533 47.949 27.8533 47.949L27.8455 47.949C26.9682 47.949 26.0988 47.0314 25.433 45.1836L22.6602 37.5282C21.3207 33.8326 21.3207 27.8114 22.6602 24.0905C23.3729 22.117 24.3207 21.1742 25.2528 21.2999Z" fill="#EEF4FB"/>
</g>
<defs>
<clipPath id="clip0">
<rect width="100" height="100" fill="white"/>
</clipPath>
</defs>
</svg>
