<?xml version="1.0" standalone="no"?>
<!DOCTYPE svg PUBLIC "-//W3C//DTD SVG 20010904//EN"
 "http://www.w3.org/TR/2001/REC-SVG-20010904/DTD/svg10.dtd">
<svg version="1.0" xmlns="http://www.w3.org/2000/svg"
 width="512.000000pt" height="512.000000pt" viewBox="0 0 512.000000 512.000000"
 preserveAspectRatio="xMidYMid meet">
<metadata>
Created by potrace 1.11, written by Peter Selinger 2001-2013
</metadata>
<g transform="translate(0.000000,512.000000) scale(0.100000,-0.100000)"
fill="#000000" stroke="none">
<path d="M0 2560 l0 -2560 2560 0 2560 0 0 2560 0 2560 -2560 0 -2560 0 0
-2560z m1555 1531 c180 -27 346 -65 503 -116 123 -41 316 -119 335 -135 5 -4
-12 -82 -37 -172 l-46 -165 0 -315 0 -314 251 -82 c138 -46 253 -81 255 -79 2
1 4 162 5 357 l1 355 -74 13 c-40 7 -83 15 -94 18 -21 4 -18 16 84 326 58 178
107 325 109 327 5 7 231 -19 358 -40 147 -25 317 -67 451 -112 146 -50 324
-127 324 -141 0 -7 -9 -84 -19 -172 -17 -141 -20 -258 -25 -1016 l-5 -856 22
-5 c12 -3 59 -11 105 -18 65 -9 82 -15 78 -26 -3 -8 -49 -148 -102 -311 -53
-163 -100 -301 -105 -306 -21 -23 -466 41 -694 99 -198 51 -455 150 -455 176
0 6 18 77 40 159 l40 147 -2 209 -3 208 -257 52 -258 51 0 -127 c0 -70 -3
-167 -6 -217 l-7 -89 104 -18 c57 -9 104 -18 106 -19 4 -4 -199 -622 -207
-631 -17 -18 -453 39 -676 89 -217 49 -524 160 -524 189 0 6 18 76 40 156 l40
145 0 876 0 876 -82 12 c-46 7 -92 15 -104 17 -20 5 -17 19 85 331 l106 325
105 -6 c58 -3 164 -15 235 -25z"/>
</g>
</svg>
