<svg width="700" height="700" viewBox="0 0 700 700" fill="none" xmlns="http://www.w3.org/2000/svg">
<path d="M317.3 10.4001C307.9 12.6001 299.4 17.5002 291.4 25.5002C283.2 33.7002 277.8 42.2002 273.3 54.0002C269.2 65.1002 267.8 65.1001 264.1 54.4001C256.3 31.7001 238.4 19.2002 210 16.5002C195.6 15.2002 171.3 19.8002 161 25.7002C153.2 30.3002 145.2 38.7001 141.5 46.4001C139.4 50.8001 134.7 65.6002 129.4 84.5002C117.9 125.8 117.4 134 125.5 150.8L128.8 157.8L125.3 168.7C119.2 187.3 119.6 200.3 126.7 214.5C131.5 224.2 145.8 242.5 147.4 240.9C147.7 240.6 147.5 237.5 146.8 233.9C145.3 225.2 145.4 195.4 146.9 185.3C150.5 160.5 160 141 168.4 141H170.8L167.3 147.5C156 168.8 153.6 215.8 162.5 243.7C168.5 262.7 186 309.2 188.7 313.1C194.8 322.2 201.4 324 208.7 318.4C213.3 314.9 211.9 317.6 205.4 324.9C194.2 337.3 184.7 336.8 177.4 323.5C175.6 320.2 169.4 304.5 163.6 288.5C157.7 272.6 152.5 259.1 151.9 258.5C151.2 257.8 150.9 312.4 151.1 437.5C151.2 613.8 151.3 617.6 153.2 622.7C154.3 625.6 154.876 625.983 156.1 628C159.604 633.771 166.9 641.5 166.9 641.5L172.2 646.3C183.6 656.7 206.5 669.5 225.7 676.4L248.117 683.952V587.702V493.219V300.719L230.4 293C229 292.4 228.1 291.4 228.4 290.7C228.6 290.1 229.4 287.9 230 285.9L231.2 282.3L237.8 283.7C241.5 284.4 245 284.9 245.7 284.8C246.4 284.6 244 282.1 240.5 279.2C234.2 274.1 233.2 272.2 234.6 268.6C235.1 267.2 235.5 267.2 237.9 268.9C242.5 272.2 309.3 312.1 315 315C327 321 338.9 322.6 348.6 319.3C359 315.8 371.8 299 377.9 280.5C383.6 263.4 384.4 241.1 380.1 223.5C379 219.1 378.3 215.4 378.5 215.2C379.2 214.4 385.2 233 387 241.9C389.1 252.3 389.6 270.9 388.1 280.2C387.5 283.9 387.6 285 388.6 285C392.7 285 480.4 259.5 486.6 256.5C500.9 249.6 509.8 241 515.8 228.4C518.3 222.9 518.5 221.6 518.4 210C518.4 196.7 516.7 188.1 511.6 175.2C509.6 170.1 509.3 168.3 510.1 166.2C510.7 164.7 511.4 159.9 511.7 155.5C513.7 125.7 490 99.2002 460.8 98.7002L453 98.5002L451.9 95.0002C449.6 87.8002 440.9 70.5002 435.6 62.6002C425 46.7002 415.8 40.1002 394 33.0002C387.1 30.7002 379.1 27.1002 374 24.1002C353.3 11.7002 333.1 6.80015 317.3 10.4001Z" fill="black"/>
<path d="M519 276.2V303.5H537.3C553.5 303.6 556 303.8 560 305.6C565.7 308.2 570.7 313.2 573.4 319C575.4 323.2 575.5 325.5 575.8 354.2C576.2 389.2 575.3 397.4 570 408.5C565 419 556.6 426.6 537.2 438.4C528.2 443.8 520.6 448.8 520.4 449.4C520.2 450 520.1 464.6 520.2 481.8L520.5 513L562.5 485.2C609.5 454.1 611.7 452.2 619.6 436.5C627 421.6 627.2 419.8 626.8 363L626.5 313.5L623.3 304.2C619 291.4 613.1 282 603.6 272.4C595 263.8 585.1 257.3 575.4 253.9C564.2 249.9 557.2 249 537.8 249H519V276.2Z" fill="black"/>
<path d="M498.5 258.6C490 266.4 472.3 278 459.8 284L449 289.2V480.6C449 585.9 449.3 672 449.8 672C451.3 672 466.2 663.1 472.9 658.1C483 650.6 494.9 637.5 499.2 629.4C506.6 615.3 506 631.6 506 432.3C506 333.7 505.7 253 505.3 253C504.8 253.1 501.8 255.6 498.5 258.6Z" fill="black"/>
<path d="M432 294.1C428.1 295.7 403.7 301.6 391.6 304C385.5 305.1 380.5 306.2 380.5 306.3C380.4 306.4 378.9 309.2 377.1 312.6C366.6 332.5 352.2 341.7 336 339C326.9 337.5 318.3 332.9 296.5 318.1C286.6 311.3 277.6 305.4 276.6 304.8C275.2 304 263 301 261.3 301C261.1 301 261 387.8 261 494V686.9L265.3 688.1C267.6 688.7 276 690.3 284 691.7C296 693.7 303.4 694.2 326.5 694.7C356.2 695.3 363.7 694.8 389.5 690.5C404.5 688 427.4 682.7 432.8 680.5L436 679.1V486.1C436 379.9 435.7 293 435.3 293.1C434.8 293.1 433.4 293.6 432 294.1Z" fill="black"/>
</svg>
